<mxfile host="app.diagrams.net" modified="2024-02-01T16:23:18.452Z" agent="Mozilla/5.0 (Windows NT 10.0; Win64; x64; rv:122.0) Gecko/20100101 Firefox/122.0" etag="GXIHOjqTYEAVcsib3ExM" version="23.0.2" type="device">
  <diagram name="Page-1" id="9ED6BRu55uAQE7puqJOz">
    <mxGraphModel dx="1770" dy="495" grid="1" gridSize="10" guides="1" tooltips="1" connect="1" arrows="1" fold="1" page="1" pageScale="1" pageWidth="850" pageHeight="1100" math="0" shadow="0">
      <root>
        <mxCell id="0" />
        <mxCell id="1" parent="0" />
        <mxCell id="QglXrr8lXGnWZPhlS6Z8-1" value="STORE " style="rounded=0;whiteSpace=wrap;html=1;" parent="1" vertex="1">
          <mxGeometry x="530" y="240" width="120" height="60" as="geometry" />
        </mxCell>
        <mxCell id="QglXrr8lXGnWZPhlS6Z8-2" value="USER" style="rounded=0;whiteSpace=wrap;html=1;" parent="1" vertex="1">
          <mxGeometry x="200" y="242" width="120" height="60" as="geometry" />
        </mxCell>
        <mxCell id="QglXrr8lXGnWZPhlS6Z8-3" value="" style="endArrow=none;html=1;rounded=0;entryX=0;entryY=0;entryDx=0;entryDy=0;exitX=0.485;exitY=1.182;exitDx=0;exitDy=0;exitPerimeter=0;" parent="1" source="QglXrr8lXGnWZPhlS6Z8-4" target="QglXrr8lXGnWZPhlS6Z8-2" edge="1">
          <mxGeometry width="50" height="50" relative="1" as="geometry">
            <mxPoint x="150" y="242" as="sourcePoint" />
            <mxPoint x="160" y="262" as="targetPoint" />
          </mxGeometry>
        </mxCell>
        <mxCell id="QglXrr8lXGnWZPhlS6Z8-4" value="" style="ellipse;whiteSpace=wrap;html=1;aspect=fixed;fillColor=#66B2FF;" parent="1" vertex="1">
          <mxGeometry x="195" y="210" width="10" height="10" as="geometry" />
        </mxCell>
        <mxCell id="QglXrr8lXGnWZPhlS6Z8-5" value="id" style="text;html=1;align=center;verticalAlign=middle;resizable=0;points=[];autosize=1;strokeColor=none;fillColor=none;" parent="1" vertex="1">
          <mxGeometry x="185" y="180" width="30" height="30" as="geometry" />
        </mxCell>
        <mxCell id="QglXrr8lXGnWZPhlS6Z8-6" value="" style="endArrow=none;html=1;rounded=0;entryX=0.25;entryY=0;entryDx=0;entryDy=0;exitX=0.5;exitY=1;exitDx=0;exitDy=0;" parent="1" source="QglXrr8lXGnWZPhlS6Z8-7" target="QglXrr8lXGnWZPhlS6Z8-2" edge="1">
          <mxGeometry width="50" height="50" relative="1" as="geometry">
            <mxPoint x="152.5" y="262" as="sourcePoint" />
            <mxPoint x="202.5" y="262" as="targetPoint" />
          </mxGeometry>
        </mxCell>
        <mxCell id="QglXrr8lXGnWZPhlS6Z8-7" value="" style="ellipse;whiteSpace=wrap;html=1;aspect=fixed;fillColor=#3399FF;" parent="1" vertex="1">
          <mxGeometry x="225" y="200" width="10" height="10" as="geometry" />
        </mxCell>
        <mxCell id="QglXrr8lXGnWZPhlS6Z8-8" value="email" style="text;html=1;align=center;verticalAlign=middle;resizable=0;points=[];autosize=1;strokeColor=none;fillColor=none;" parent="1" vertex="1">
          <mxGeometry x="205" y="170" width="50" height="30" as="geometry" />
        </mxCell>
        <mxCell id="QglXrr8lXGnWZPhlS6Z8-9" value="" style="endArrow=none;html=1;rounded=0;exitX=0.5;exitY=1;exitDx=0;exitDy=0;" parent="1" source="QglXrr8lXGnWZPhlS6Z8-10" edge="1">
          <mxGeometry width="50" height="50" relative="1" as="geometry">
            <mxPoint x="150" y="292" as="sourcePoint" />
            <mxPoint x="265" y="240" as="targetPoint" />
          </mxGeometry>
        </mxCell>
        <mxCell id="QglXrr8lXGnWZPhlS6Z8-10" value="" style="ellipse;whiteSpace=wrap;html=1;aspect=fixed;fillColor=none;" parent="1" vertex="1">
          <mxGeometry x="260" y="180" width="10" height="10" as="geometry" />
        </mxCell>
        <mxCell id="QglXrr8lXGnWZPhlS6Z8-11" value="" style="endArrow=none;html=1;rounded=0;exitX=0.449;exitY=1.133;exitDx=0;exitDy=0;entryX=0.866;entryY=-0.014;entryDx=0;entryDy=0;entryPerimeter=0;exitPerimeter=0;" parent="1" source="QglXrr8lXGnWZPhlS6Z8-12" target="QglXrr8lXGnWZPhlS6Z8-2" edge="1">
          <mxGeometry width="50" height="50" relative="1" as="geometry">
            <mxPoint x="149" y="312" as="sourcePoint" />
            <mxPoint x="200" y="302" as="targetPoint" />
          </mxGeometry>
        </mxCell>
        <mxCell id="QglXrr8lXGnWZPhlS6Z8-12" value="" style="ellipse;whiteSpace=wrap;html=1;aspect=fixed;" parent="1" vertex="1">
          <mxGeometry x="300" y="160" width="10" height="10" as="geometry" />
        </mxCell>
        <mxCell id="QglXrr8lXGnWZPhlS6Z8-13" value="name" style="text;html=1;align=center;verticalAlign=middle;resizable=0;points=[];autosize=1;strokeColor=none;fillColor=none;" parent="1" vertex="1">
          <mxGeometry x="275" y="130" width="60" height="30" as="geometry" />
        </mxCell>
        <mxCell id="QglXrr8lXGnWZPhlS6Z8-15" value="password" style="text;html=1;align=center;verticalAlign=middle;resizable=0;points=[];autosize=1;strokeColor=none;fillColor=none;" parent="1" vertex="1">
          <mxGeometry x="225" y="150" width="80" height="30" as="geometry" />
        </mxCell>
        <mxCell id="QglXrr8lXGnWZPhlS6Z8-16" value="create" style="shape=rhombus;perimeter=rhombusPerimeter;whiteSpace=wrap;html=1;align=center;" parent="1" vertex="1">
          <mxGeometry x="365" y="242" width="120" height="60" as="geometry" />
        </mxCell>
        <mxCell id="QglXrr8lXGnWZPhlS6Z8-17" value="" style="endArrow=none;html=1;rounded=0;exitX=1;exitY=0.5;exitDx=0;exitDy=0;entryX=0;entryY=0.5;entryDx=0;entryDy=0;" parent="1" source="QglXrr8lXGnWZPhlS6Z8-2" target="QglXrr8lXGnWZPhlS6Z8-16" edge="1">
          <mxGeometry width="50" height="50" relative="1" as="geometry">
            <mxPoint x="330" y="320" as="sourcePoint" />
            <mxPoint x="360" y="270" as="targetPoint" />
          </mxGeometry>
        </mxCell>
        <mxCell id="QglXrr8lXGnWZPhlS6Z8-18" value="" style="endArrow=none;html=1;rounded=0;exitX=1;exitY=0.5;exitDx=0;exitDy=0;entryX=0;entryY=0.55;entryDx=0;entryDy=0;entryPerimeter=0;" parent="1" source="QglXrr8lXGnWZPhlS6Z8-16" target="QglXrr8lXGnWZPhlS6Z8-1" edge="1">
          <mxGeometry width="50" height="50" relative="1" as="geometry">
            <mxPoint x="480" y="259.6" as="sourcePoint" />
            <mxPoint x="525" y="259.6" as="targetPoint" />
          </mxGeometry>
        </mxCell>
        <mxCell id="QglXrr8lXGnWZPhlS6Z8-19" value="" style="endArrow=none;html=1;rounded=0;exitX=0.996;exitY=0.073;exitDx=0;exitDy=0;entryX=0;entryY=0.5;entryDx=0;entryDy=0;exitPerimeter=0;" parent="1" source="QglXrr8lXGnWZPhlS6Z8-1" target="QglXrr8lXGnWZPhlS6Z8-20" edge="1">
          <mxGeometry width="50" height="50" relative="1" as="geometry">
            <mxPoint x="680" y="290" as="sourcePoint" />
            <mxPoint x="690" y="240" as="targetPoint" />
          </mxGeometry>
        </mxCell>
        <mxCell id="QglXrr8lXGnWZPhlS6Z8-20" value="" style="ellipse;whiteSpace=wrap;html=1;aspect=fixed;fillColor=#3399FF;" parent="1" vertex="1">
          <mxGeometry x="690" y="240" width="10" height="10" as="geometry" />
        </mxCell>
        <mxCell id="QglXrr8lXGnWZPhlS6Z8-21" value="id" style="text;html=1;align=center;verticalAlign=middle;resizable=0;points=[];autosize=1;strokeColor=none;fillColor=none;" parent="1" vertex="1">
          <mxGeometry x="715" y="230" width="30" height="30" as="geometry" />
        </mxCell>
        <mxCell id="QglXrr8lXGnWZPhlS6Z8-22" value="" style="endArrow=none;html=1;rounded=0;exitX=1;exitY=0.75;exitDx=0;exitDy=0;entryX=0;entryY=0.5;entryDx=0;entryDy=0;" parent="1" source="QglXrr8lXGnWZPhlS6Z8-1" target="QglXrr8lXGnWZPhlS6Z8-23" edge="1">
          <mxGeometry width="50" height="50" relative="1" as="geometry">
            <mxPoint x="650" y="310" as="sourcePoint" />
            <mxPoint x="680" y="285" as="targetPoint" />
          </mxGeometry>
        </mxCell>
        <mxCell id="QglXrr8lXGnWZPhlS6Z8-23" value="" style="ellipse;whiteSpace=wrap;html=1;aspect=fixed;fillColor=none;" parent="1" vertex="1">
          <mxGeometry x="690" y="280" width="10" height="10" as="geometry" />
        </mxCell>
        <mxCell id="QglXrr8lXGnWZPhlS6Z8-24" value="name" style="text;html=1;align=center;verticalAlign=middle;resizable=0;points=[];autosize=1;strokeColor=none;fillColor=none;" parent="1" vertex="1">
          <mxGeometry x="700" y="268" width="60" height="30" as="geometry" />
        </mxCell>
        <mxCell id="QglXrr8lXGnWZPhlS6Z8-25" value="PRODUCT" style="rounded=0;whiteSpace=wrap;html=1;" parent="1" vertex="1">
          <mxGeometry x="530" y="475" width="120" height="60" as="geometry" />
        </mxCell>
        <mxCell id="QglXrr8lXGnWZPhlS6Z8-26" value="" style="endArrow=none;html=1;rounded=0;exitX=0.999;exitY=0.144;exitDx=0;exitDy=0;exitPerimeter=0;entryX=0;entryY=0.5;entryDx=0;entryDy=0;" parent="1" source="QglXrr8lXGnWZPhlS6Z8-25" target="QglXrr8lXGnWZPhlS6Z8-27" edge="1">
          <mxGeometry width="50" height="50" relative="1" as="geometry">
            <mxPoint x="670" y="510" as="sourcePoint" />
            <mxPoint x="690" y="490" as="targetPoint" />
          </mxGeometry>
        </mxCell>
        <mxCell id="QglXrr8lXGnWZPhlS6Z8-27" value="" style="ellipse;whiteSpace=wrap;html=1;aspect=fixed;fillColor=none;" parent="1" vertex="1">
          <mxGeometry x="700" y="470" width="10" height="10" as="geometry" />
        </mxCell>
        <mxCell id="QglXrr8lXGnWZPhlS6Z8-28" value="name" style="text;html=1;align=center;verticalAlign=middle;resizable=0;points=[];autosize=1;strokeColor=none;fillColor=none;" parent="1" vertex="1">
          <mxGeometry x="705" y="460" width="60" height="30" as="geometry" />
        </mxCell>
        <mxCell id="QglXrr8lXGnWZPhlS6Z8-29" value="" style="ellipse;whiteSpace=wrap;html=1;aspect=fixed;fillColor=none;" parent="1" vertex="1">
          <mxGeometry x="700" y="490" width="10" height="10" as="geometry" />
        </mxCell>
        <mxCell id="QglXrr8lXGnWZPhlS6Z8-30" value="description" style="text;html=1;align=center;verticalAlign=middle;resizable=0;points=[];autosize=1;strokeColor=none;fillColor=none;" parent="1" vertex="1">
          <mxGeometry x="710" y="480" width="80" height="30" as="geometry" />
        </mxCell>
        <mxCell id="QglXrr8lXGnWZPhlS6Z8-31" value="" style="endArrow=none;html=1;rounded=0;exitX=1.004;exitY=0.417;exitDx=0;exitDy=0;exitPerimeter=0;entryX=0;entryY=0.5;entryDx=0;entryDy=0;" parent="1" source="QglXrr8lXGnWZPhlS6Z8-25" target="QglXrr8lXGnWZPhlS6Z8-29" edge="1">
          <mxGeometry width="50" height="50" relative="1" as="geometry">
            <mxPoint x="660" y="499" as="sourcePoint" />
            <mxPoint x="700" y="500" as="targetPoint" />
          </mxGeometry>
        </mxCell>
        <mxCell id="QglXrr8lXGnWZPhlS6Z8-32" value="" style="endArrow=none;html=1;rounded=0;exitX=0.996;exitY=0.663;exitDx=0;exitDy=0;exitPerimeter=0;entryX=0.046;entryY=0.654;entryDx=0;entryDy=0;entryPerimeter=0;" parent="1" source="QglXrr8lXGnWZPhlS6Z8-25" target="QglXrr8lXGnWZPhlS6Z8-33" edge="1">
          <mxGeometry width="50" height="50" relative="1" as="geometry">
            <mxPoint x="650" y="570" as="sourcePoint" />
            <mxPoint x="700" y="520" as="targetPoint" />
          </mxGeometry>
        </mxCell>
        <mxCell id="QglXrr8lXGnWZPhlS6Z8-33" value="" style="ellipse;whiteSpace=wrap;html=1;aspect=fixed;fillColor=none;" parent="1" vertex="1">
          <mxGeometry x="700" y="510" width="10" height="10" as="geometry" />
        </mxCell>
        <mxCell id="QglXrr8lXGnWZPhlS6Z8-34" value="stock" style="text;html=1;align=center;verticalAlign=middle;resizable=0;points=[];autosize=1;strokeColor=none;fillColor=none;" parent="1" vertex="1">
          <mxGeometry x="710" y="500" width="50" height="30" as="geometry" />
        </mxCell>
        <mxCell id="QglXrr8lXGnWZPhlS6Z8-36" value="" style="endArrow=none;html=1;rounded=0;exitX=1;exitY=0.86;exitDx=0;exitDy=0;exitPerimeter=0;entryX=0.008;entryY=0.692;entryDx=0;entryDy=0;entryPerimeter=0;" parent="1" source="QglXrr8lXGnWZPhlS6Z8-25" target="QglXrr8lXGnWZPhlS6Z8-37" edge="1">
          <mxGeometry width="50" height="50" relative="1" as="geometry">
            <mxPoint x="650" y="590" as="sourcePoint" />
            <mxPoint x="700" y="540" as="targetPoint" />
            <Array as="points">
              <mxPoint x="680" y="528" />
            </Array>
          </mxGeometry>
        </mxCell>
        <mxCell id="QglXrr8lXGnWZPhlS6Z8-37" value="" style="ellipse;whiteSpace=wrap;html=1;aspect=fixed;fillColor=none;" parent="1" vertex="1">
          <mxGeometry x="700" y="528" width="10" height="10" as="geometry" />
        </mxCell>
        <mxCell id="QglXrr8lXGnWZPhlS6Z8-38" value="price" style="text;html=1;align=center;verticalAlign=middle;resizable=0;points=[];autosize=1;strokeColor=none;fillColor=none;" parent="1" vertex="1">
          <mxGeometry x="710" y="520" width="50" height="30" as="geometry" />
        </mxCell>
        <mxCell id="QglXrr8lXGnWZPhlS6Z8-39" value="" style="endArrow=none;html=1;rounded=0;entryX=0.788;entryY=0.752;entryDx=0;entryDy=0;entryPerimeter=0;exitX=0.5;exitY=0;exitDx=0;exitDy=0;" parent="1" source="QglXrr8lXGnWZPhlS6Z8-41" target="QglXrr8lXGnWZPhlS6Z8-46" edge="1">
          <mxGeometry width="50" height="50" relative="1" as="geometry">
            <mxPoint x="615" y="545" as="sourcePoint" />
            <mxPoint x="635" y="525" as="targetPoint" />
          </mxGeometry>
        </mxCell>
        <mxCell id="QglXrr8lXGnWZPhlS6Z8-41" value="" style="ellipse;whiteSpace=wrap;html=1;aspect=fixed;fillColor=none;" parent="1" vertex="1">
          <mxGeometry x="445" y="548" width="10" height="10" as="geometry" />
        </mxCell>
        <mxCell id="QglXrr8lXGnWZPhlS6Z8-42" value="price" style="text;html=1;align=center;verticalAlign=middle;resizable=0;points=[];autosize=1;strokeColor=none;fillColor=none;" parent="1" vertex="1">
          <mxGeometry x="425" y="555" width="50" height="30" as="geometry" />
        </mxCell>
        <mxCell id="QglXrr8lXGnWZPhlS6Z8-43" value="" style="endArrow=none;html=1;rounded=0;entryX=0;entryY=1;entryDx=0;entryDy=0;exitX=0.392;exitY=-0.212;exitDx=0;exitDy=0;exitPerimeter=0;" parent="1" source="QglXrr8lXGnWZPhlS6Z8-44" target="QglXrr8lXGnWZPhlS6Z8-46" edge="1">
          <mxGeometry width="50" height="50" relative="1" as="geometry">
            <mxPoint x="575" y="545" as="sourcePoint" />
            <mxPoint x="625" y="535" as="targetPoint" />
          </mxGeometry>
        </mxCell>
        <mxCell id="QglXrr8lXGnWZPhlS6Z8-44" value="" style="ellipse;whiteSpace=wrap;html=1;aspect=fixed;fillColor=none;" parent="1" vertex="1">
          <mxGeometry x="380" y="548" width="10" height="10" as="geometry" />
        </mxCell>
        <mxCell id="QglXrr8lXGnWZPhlS6Z8-45" value="discount" style="text;html=1;align=center;verticalAlign=middle;resizable=0;points=[];autosize=1;strokeColor=none;fillColor=none;" parent="1" vertex="1">
          <mxGeometry x="335" y="555" width="70" height="30" as="geometry" />
        </mxCell>
        <mxCell id="QglXrr8lXGnWZPhlS6Z8-46" value="include" style="shape=rhombus;perimeter=rhombusPerimeter;whiteSpace=wrap;html=1;align=center;" parent="1" vertex="1">
          <mxGeometry x="355" y="475" width="120" height="60" as="geometry" />
        </mxCell>
        <mxCell id="QglXrr8lXGnWZPhlS6Z8-48" value="" style="endArrow=none;html=1;rounded=0;entryX=0;entryY=0.5;entryDx=0;entryDy=0;exitX=1;exitY=0.5;exitDx=0;exitDy=0;" parent="1" source="QglXrr8lXGnWZPhlS6Z8-46" target="QglXrr8lXGnWZPhlS6Z8-25" edge="1">
          <mxGeometry width="50" height="50" relative="1" as="geometry">
            <mxPoint x="360" y="500" as="sourcePoint" />
            <mxPoint x="410" y="450" as="targetPoint" />
          </mxGeometry>
        </mxCell>
        <mxCell id="QglXrr8lXGnWZPhlS6Z8-50" value="(0, n)" style="text;html=1;align=center;verticalAlign=middle;resizable=0;points=[];autosize=1;strokeColor=none;fillColor=none;" parent="1" vertex="1">
          <mxGeometry x="485" y="480" width="50" height="30" as="geometry" />
        </mxCell>
        <mxCell id="QglXrr8lXGnWZPhlS6Z8-51" value="" style="endArrow=none;html=1;rounded=0;entryX=0.817;entryY=1.025;entryDx=0;entryDy=0;entryPerimeter=0;exitX=0.5;exitY=0;exitDx=0;exitDy=0;" parent="1" source="QglXrr8lXGnWZPhlS6Z8-52" target="QglXrr8lXGnWZPhlS6Z8-25" edge="1">
          <mxGeometry width="50" height="50" relative="1" as="geometry">
            <mxPoint x="628" y="560" as="sourcePoint" />
            <mxPoint x="660" y="550" as="targetPoint" />
            <Array as="points">
              <mxPoint x="630" y="610" />
            </Array>
          </mxGeometry>
        </mxCell>
        <mxCell id="QglXrr8lXGnWZPhlS6Z8-52" value="" style="ellipse;whiteSpace=wrap;html=1;aspect=fixed;fillColor=none;" parent="1" vertex="1">
          <mxGeometry x="700" y="615" width="10" height="10" as="geometry" />
        </mxCell>
        <mxCell id="QglXrr8lXGnWZPhlS6Z8-53" value="image" style="text;html=1;align=center;verticalAlign=middle;resizable=0;points=[];autosize=1;strokeColor=none;fillColor=none;" parent="1" vertex="1">
          <mxGeometry x="705" y="605" width="60" height="30" as="geometry" />
        </mxCell>
        <mxCell id="QglXrr8lXGnWZPhlS6Z8-54" value="(1, n)" style="text;html=1;align=center;verticalAlign=middle;resizable=0;points=[];autosize=1;strokeColor=none;fillColor=none;fontSize=10;" parent="1" vertex="1">
          <mxGeometry x="620" y="588" width="50" height="30" as="geometry" />
        </mxCell>
        <mxCell id="QglXrr8lXGnWZPhlS6Z8-55" value="sells" style="shape=rhombus;perimeter=rhombusPerimeter;whiteSpace=wrap;html=1;align=center;" parent="1" vertex="1">
          <mxGeometry x="530" y="360" width="120" height="60" as="geometry" />
        </mxCell>
        <mxCell id="QglXrr8lXGnWZPhlS6Z8-56" value="" style="endArrow=none;html=1;rounded=0;entryX=0.518;entryY=1.016;entryDx=0;entryDy=0;entryPerimeter=0;exitX=0.5;exitY=0;exitDx=0;exitDy=0;" parent="1" source="QglXrr8lXGnWZPhlS6Z8-55" target="QglXrr8lXGnWZPhlS6Z8-1" edge="1">
          <mxGeometry width="50" height="50" relative="1" as="geometry">
            <mxPoint x="540" y="360" as="sourcePoint" />
            <mxPoint x="590" y="310" as="targetPoint" />
          </mxGeometry>
        </mxCell>
        <mxCell id="QglXrr8lXGnWZPhlS6Z8-58" value="" style="endArrow=none;html=1;rounded=0;entryX=0.5;entryY=1;entryDx=0;entryDy=0;exitX=0.5;exitY=0;exitDx=0;exitDy=0;" parent="1" source="QglXrr8lXGnWZPhlS6Z8-25" target="QglXrr8lXGnWZPhlS6Z8-55" edge="1">
          <mxGeometry width="50" height="50" relative="1" as="geometry">
            <mxPoint x="590" y="450" as="sourcePoint" />
            <mxPoint x="602" y="361" as="targetPoint" />
          </mxGeometry>
        </mxCell>
        <mxCell id="QglXrr8lXGnWZPhlS6Z8-59" value="(1, 1)" style="text;html=1;align=center;verticalAlign=middle;resizable=0;points=[];autosize=1;strokeColor=none;fillColor=none;" parent="1" vertex="1">
          <mxGeometry x="585" y="440" width="50" height="30" as="geometry" />
        </mxCell>
        <mxCell id="QglXrr8lXGnWZPhlS6Z8-60" value="(0, n)" style="text;html=1;align=center;verticalAlign=middle;resizable=0;points=[];autosize=1;strokeColor=none;fillColor=none;" parent="1" vertex="1">
          <mxGeometry x="590" y="302" width="50" height="30" as="geometry" />
        </mxCell>
        <mxCell id="QglXrr8lXGnWZPhlS6Z8-61" value="" style="endArrow=none;html=1;rounded=0;entryX=0.342;entryY=1.05;entryDx=0;entryDy=0;entryPerimeter=0;exitX=0.5;exitY=0;exitDx=0;exitDy=0;" parent="1" source="QglXrr8lXGnWZPhlS6Z8-62" target="QglXrr8lXGnWZPhlS6Z8-2" edge="1">
          <mxGeometry width="50" height="50" relative="1" as="geometry">
            <mxPoint x="240" y="630" as="sourcePoint" />
            <mxPoint x="250" y="390" as="targetPoint" />
            <Array as="points">
              <mxPoint x="240" y="370" />
            </Array>
          </mxGeometry>
        </mxCell>
        <mxCell id="QglXrr8lXGnWZPhlS6Z8-62" value="makes" style="shape=rhombus;perimeter=rhombusPerimeter;whiteSpace=wrap;html=1;align=center;" parent="1" vertex="1">
          <mxGeometry x="180" y="360" width="120" height="60" as="geometry" />
        </mxCell>
        <mxCell id="QglXrr8lXGnWZPhlS6Z8-64" value="&lt;p dir=&quot;auto&quot; class=&quot;resultText&quot;&gt;ORDER&lt;/p&gt;" style="rounded=0;whiteSpace=wrap;html=1;" parent="1" vertex="1">
          <mxGeometry x="180" y="468" width="120" height="60" as="geometry" />
        </mxCell>
        <mxCell id="QglXrr8lXGnWZPhlS6Z8-65" value="" style="endArrow=none;html=1;rounded=0;exitX=0.5;exitY=0;exitDx=0;exitDy=0;" parent="1" source="QglXrr8lXGnWZPhlS6Z8-66" edge="1">
          <mxGeometry width="50" height="50" relative="1" as="geometry">
            <mxPoint x="85" y="630" as="sourcePoint" />
            <mxPoint x="197" y="530" as="targetPoint" />
          </mxGeometry>
        </mxCell>
        <mxCell id="QglXrr8lXGnWZPhlS6Z8-66" value="" style="ellipse;whiteSpace=wrap;html=1;aspect=fixed;fillColor=none;" parent="1" vertex="1">
          <mxGeometry x="191.5" y="558" width="10" height="10" as="geometry" />
        </mxCell>
        <mxCell id="QglXrr8lXGnWZPhlS6Z8-67" value="total_price" style="text;html=1;align=center;verticalAlign=middle;resizable=0;points=[];autosize=1;strokeColor=none;fillColor=none;" parent="1" vertex="1">
          <mxGeometry x="111.5" y="545" width="80" height="30" as="geometry" />
        </mxCell>
        <mxCell id="QglXrr8lXGnWZPhlS6Z8-68" value="(0, n)" style="text;html=1;align=center;verticalAlign=middle;resizable=0;points=[];autosize=1;strokeColor=none;fillColor=none;" parent="1" vertex="1">
          <mxGeometry x="315" y="250" width="50" height="30" as="geometry" />
        </mxCell>
        <mxCell id="QglXrr8lXGnWZPhlS6Z8-69" value="(1, 1)" style="text;html=1;align=center;verticalAlign=middle;resizable=0;points=[];autosize=1;strokeColor=none;fillColor=none;" parent="1" vertex="1">
          <mxGeometry x="480" y="250" width="50" height="30" as="geometry" />
        </mxCell>
        <mxCell id="QglXrr8lXGnWZPhlS6Z8-70" value="" style="endArrow=none;html=1;rounded=0;exitX=1;exitY=0;exitDx=0;exitDy=0;entryX=0;entryY=0.5;entryDx=0;entryDy=0;" parent="1" source="QglXrr8lXGnWZPhlS6Z8-25" target="QglXrr8lXGnWZPhlS6Z8-71" edge="1">
          <mxGeometry width="50" height="50" relative="1" as="geometry">
            <mxPoint x="690" y="460" as="sourcePoint" />
            <mxPoint x="700" y="450" as="targetPoint" />
          </mxGeometry>
        </mxCell>
        <mxCell id="QglXrr8lXGnWZPhlS6Z8-71" value="" style="ellipse;whiteSpace=wrap;html=1;fillColor=#3399FF;" parent="1" vertex="1">
          <mxGeometry x="700" y="450" width="10" height="10" as="geometry" />
        </mxCell>
        <mxCell id="QglXrr8lXGnWZPhlS6Z8-72" value="id" style="text;html=1;align=center;verticalAlign=middle;resizable=0;points=[];autosize=1;strokeColor=none;fillColor=none;" parent="1" vertex="1">
          <mxGeometry x="710" y="440" width="30" height="30" as="geometry" />
        </mxCell>
        <mxCell id="QglXrr8lXGnWZPhlS6Z8-73" value="" style="endArrow=none;html=1;rounded=0;entryX=1;entryY=1;entryDx=0;entryDy=0;exitX=0;exitY=0.5;exitDx=0;exitDy=0;" parent="1" source="QglXrr8lXGnWZPhlS6Z8-74" target="QglXrr8lXGnWZPhlS6Z8-25" edge="1">
          <mxGeometry width="50" height="50" relative="1" as="geometry">
            <mxPoint x="690" y="550" as="sourcePoint" />
            <mxPoint x="690" y="540" as="targetPoint" />
          </mxGeometry>
        </mxCell>
        <mxCell id="QglXrr8lXGnWZPhlS6Z8-74" value="" style="ellipse;whiteSpace=wrap;html=1;aspect=fixed;fillColor=none;" parent="1" vertex="1">
          <mxGeometry x="700" y="548" width="10" height="10" as="geometry" />
        </mxCell>
        <mxCell id="QglXrr8lXGnWZPhlS6Z8-75" value="discount" style="text;html=1;align=center;verticalAlign=middle;resizable=0;points=[];autosize=1;strokeColor=none;fillColor=none;" parent="1" vertex="1">
          <mxGeometry x="705" y="538" width="70" height="30" as="geometry" />
        </mxCell>
        <mxCell id="QglXrr8lXGnWZPhlS6Z8-76" value="" style="endArrow=none;html=1;rounded=0;entryX=0.943;entryY=1.01;entryDx=0;entryDy=0;entryPerimeter=0;exitX=0;exitY=0.5;exitDx=0;exitDy=0;" parent="1" source="QglXrr8lXGnWZPhlS6Z8-77" target="QglXrr8lXGnWZPhlS6Z8-25" edge="1">
          <mxGeometry width="50" height="50" relative="1" as="geometry">
            <mxPoint x="700" y="570" as="sourcePoint" />
            <mxPoint x="660" y="540" as="targetPoint" />
            <Array as="points">
              <mxPoint x="650" y="570" />
            </Array>
          </mxGeometry>
        </mxCell>
        <mxCell id="QglXrr8lXGnWZPhlS6Z8-77" value="" style="ellipse;whiteSpace=wrap;html=1;aspect=fixed;fillColor=none;" parent="1" vertex="1">
          <mxGeometry x="700" y="568" width="10" height="10" as="geometry" />
        </mxCell>
        <mxCell id="QglXrr8lXGnWZPhlS6Z8-78" value="color" style="text;html=1;align=center;verticalAlign=middle;resizable=0;points=[];autosize=1;strokeColor=none;fillColor=none;" parent="1" vertex="1">
          <mxGeometry x="705" y="558" width="50" height="30" as="geometry" />
        </mxCell>
        <mxCell id="QglXrr8lXGnWZPhlS6Z8-79" value="" style="endArrow=none;html=1;rounded=0;entryX=0.902;entryY=1.021;entryDx=0;entryDy=0;entryPerimeter=0;exitX=-0.104;exitY=0.5;exitDx=0;exitDy=0;exitPerimeter=0;" parent="1" source="QglXrr8lXGnWZPhlS6Z8-80" target="QglXrr8lXGnWZPhlS6Z8-25" edge="1">
          <mxGeometry width="50" height="50" relative="1" as="geometry">
            <mxPoint x="690" y="580" as="sourcePoint" />
            <mxPoint x="690" y="600" as="targetPoint" />
            <Array as="points">
              <mxPoint x="640" y="590" />
            </Array>
          </mxGeometry>
        </mxCell>
        <mxCell id="QglXrr8lXGnWZPhlS6Z8-80" value="" style="ellipse;whiteSpace=wrap;html=1;aspect=fixed;fillColor=none;" parent="1" vertex="1">
          <mxGeometry x="700" y="590" width="10" height="10" as="geometry" />
        </mxCell>
        <mxCell id="QglXrr8lXGnWZPhlS6Z8-81" value="size" style="text;html=1;align=center;verticalAlign=middle;resizable=0;points=[];autosize=1;strokeColor=none;fillColor=none;" parent="1" vertex="1">
          <mxGeometry x="705" y="578" width="50" height="30" as="geometry" />
        </mxCell>
        <mxCell id="QglXrr8lXGnWZPhlS6Z8-82" value="(0, n)" style="text;html=1;align=center;verticalAlign=middle;resizable=0;points=[];autosize=1;strokeColor=none;fillColor=none;fontSize=10;" parent="1" vertex="1">
          <mxGeometry x="630" y="568" width="50" height="30" as="geometry" />
        </mxCell>
        <mxCell id="QglXrr8lXGnWZPhlS6Z8-83" value="(0, n)" style="text;html=1;align=center;verticalAlign=middle;resizable=0;points=[];autosize=1;strokeColor=none;fillColor=none;fontSize=10;" parent="1" vertex="1">
          <mxGeometry x="640" y="548" width="50" height="30" as="geometry" />
        </mxCell>
        <mxCell id="QglXrr8lXGnWZPhlS6Z8-86" value="" style="endArrow=none;html=1;rounded=0;entryX=0.5;entryY=1;entryDx=0;entryDy=0;exitX=0.5;exitY=0;exitDx=0;exitDy=0;" parent="1" source="QglXrr8lXGnWZPhlS6Z8-64" target="QglXrr8lXGnWZPhlS6Z8-62" edge="1">
          <mxGeometry width="50" height="50" relative="1" as="geometry">
            <mxPoint x="180" y="560" as="sourcePoint" />
            <mxPoint x="230" y="510" as="targetPoint" />
          </mxGeometry>
        </mxCell>
        <mxCell id="QglXrr8lXGnWZPhlS6Z8-87" value="" style="ellipse;whiteSpace=wrap;html=1;aspect=fixed;fillColor=none;" parent="1" vertex="1">
          <mxGeometry x="215" y="585" width="10" height="10" as="geometry" />
        </mxCell>
        <mxCell id="QglXrr8lXGnWZPhlS6Z8-88" value="" style="endArrow=none;html=1;rounded=0;entryX=0.327;entryY=1.006;entryDx=0;entryDy=0;entryPerimeter=0;exitX=0.5;exitY=0;exitDx=0;exitDy=0;" parent="1" source="QglXrr8lXGnWZPhlS6Z8-87" target="QglXrr8lXGnWZPhlS6Z8-64" edge="1">
          <mxGeometry width="50" height="50" relative="1" as="geometry">
            <mxPoint x="160" y="660" as="sourcePoint" />
            <mxPoint x="250" y="640" as="targetPoint" />
          </mxGeometry>
        </mxCell>
        <mxCell id="QglXrr8lXGnWZPhlS6Z8-89" value="status" style="text;html=1;align=center;verticalAlign=middle;resizable=0;points=[];autosize=1;strokeColor=none;fillColor=none;" parent="1" vertex="1">
          <mxGeometry x="155" y="575" width="60" height="30" as="geometry" />
        </mxCell>
        <mxCell id="QglXrr8lXGnWZPhlS6Z8-90" value="" style="ellipse;whiteSpace=wrap;html=1;aspect=fixed;fillColor=#3399FF;" parent="1" vertex="1">
          <mxGeometry x="235" y="615" width="10" height="10" as="geometry" />
        </mxCell>
        <mxCell id="QglXrr8lXGnWZPhlS6Z8-91" value="" style="endArrow=none;html=1;rounded=0;entryX=0.5;entryY=1;entryDx=0;entryDy=0;exitX=0.5;exitY=0;exitDx=0;exitDy=0;" parent="1" source="QglXrr8lXGnWZPhlS6Z8-90" target="QglXrr8lXGnWZPhlS6Z8-64" edge="1">
          <mxGeometry width="50" height="50" relative="1" as="geometry">
            <mxPoint x="170" y="670" as="sourcePoint" />
            <mxPoint x="223" y="622" as="targetPoint" />
          </mxGeometry>
        </mxCell>
        <mxCell id="QglXrr8lXGnWZPhlS6Z8-92" value="invoice_number" style="text;html=1;align=center;verticalAlign=middle;resizable=0;points=[];autosize=1;strokeColor=none;fillColor=none;" parent="1" vertex="1">
          <mxGeometry x="125" y="605" width="110" height="30" as="geometry" />
        </mxCell>
        <mxCell id="QglXrr8lXGnWZPhlS6Z8-93" value="" style="ellipse;whiteSpace=wrap;html=1;aspect=fixed;fillColor=#66B2FF;" parent="1" vertex="1">
          <mxGeometry x="255" y="558" width="10" height="10" as="geometry" />
        </mxCell>
        <mxCell id="QglXrr8lXGnWZPhlS6Z8-94" value="" style="endArrow=none;html=1;rounded=0;entryX=0.665;entryY=1.035;entryDx=0;entryDy=0;entryPerimeter=0;exitX=0.5;exitY=0;exitDx=0;exitDy=0;" parent="1" source="QglXrr8lXGnWZPhlS6Z8-93" target="QglXrr8lXGnWZPhlS6Z8-64" edge="1">
          <mxGeometry width="50" height="50" relative="1" as="geometry">
            <mxPoint x="240" y="684" as="sourcePoint" />
            <mxPoint x="293" y="636" as="targetPoint" />
            <Array as="points">
              <mxPoint x="260" y="550" />
            </Array>
          </mxGeometry>
        </mxCell>
        <mxCell id="QglXrr8lXGnWZPhlS6Z8-95" value="id" style="text;html=1;align=center;verticalAlign=middle;resizable=0;points=[];autosize=1;strokeColor=none;fillColor=none;" parent="1" vertex="1">
          <mxGeometry x="245" y="568" width="30" height="30" as="geometry" />
        </mxCell>
        <mxCell id="QglXrr8lXGnWZPhlS6Z8-97" value="(1, 1)" style="text;html=1;align=center;verticalAlign=middle;resizable=0;points=[];autosize=1;strokeColor=none;fillColor=none;" parent="1" vertex="1">
          <mxGeometry x="240" y="425" width="50" height="30" as="geometry" />
        </mxCell>
        <mxCell id="QglXrr8lXGnWZPhlS6Z8-98" value="(0, n)" style="text;html=1;align=center;verticalAlign=middle;resizable=0;points=[];autosize=1;strokeColor=none;fillColor=none;" parent="1" vertex="1">
          <mxGeometry x="235" y="320" width="50" height="30" as="geometry" />
        </mxCell>
        <mxCell id="QglXrr8lXGnWZPhlS6Z8-100" value="" style="endArrow=none;html=1;rounded=0;exitX=0.998;exitY=0.593;exitDx=0;exitDy=0;exitPerimeter=0;entryX=0;entryY=0.5;entryDx=0;entryDy=0;" parent="1" source="QglXrr8lXGnWZPhlS6Z8-64" target="QglXrr8lXGnWZPhlS6Z8-46" edge="1">
          <mxGeometry width="50" height="50" relative="1" as="geometry">
            <mxPoint x="300" y="530" as="sourcePoint" />
            <mxPoint x="350" y="480" as="targetPoint" />
          </mxGeometry>
        </mxCell>
        <mxCell id="QglXrr8lXGnWZPhlS6Z8-101" value="" style="endArrow=none;html=1;rounded=0;entryX=0.5;entryY=1;entryDx=0;entryDy=0;exitX=0.5;exitY=0;exitDx=0;exitDy=0;" parent="1" source="QglXrr8lXGnWZPhlS6Z8-102" target="QglXrr8lXGnWZPhlS6Z8-46" edge="1">
          <mxGeometry width="50" height="50" relative="1" as="geometry">
            <mxPoint x="410" y="600" as="sourcePoint" />
            <mxPoint x="440" y="600" as="targetPoint" />
          </mxGeometry>
        </mxCell>
        <mxCell id="QglXrr8lXGnWZPhlS6Z8-102" value="" style="ellipse;whiteSpace=wrap;html=1;aspect=fixed;fillColor=none;" parent="1" vertex="1">
          <mxGeometry x="410" y="588" width="10" height="10" as="geometry" />
        </mxCell>
        <mxCell id="QglXrr8lXGnWZPhlS6Z8-103" value="quantity" style="text;html=1;align=center;verticalAlign=middle;resizable=0;points=[];autosize=1;strokeColor=none;fillColor=none;" parent="1" vertex="1">
          <mxGeometry x="380" y="595" width="70" height="30" as="geometry" />
        </mxCell>
        <mxCell id="QglXrr8lXGnWZPhlS6Z8-104" value="" style="endArrow=none;html=1;rounded=0;entryX=0.709;entryY=0.167;entryDx=0;entryDy=0;entryPerimeter=0;exitX=0.5;exitY=1;exitDx=0;exitDy=0;" parent="1" source="QglXrr8lXGnWZPhlS6Z8-105" target="QglXrr8lXGnWZPhlS6Z8-46" edge="1">
          <mxGeometry width="50" height="50" relative="1" as="geometry">
            <mxPoint x="470" y="540" as="sourcePoint" />
            <mxPoint x="500" y="520" as="targetPoint" />
          </mxGeometry>
        </mxCell>
        <mxCell id="QglXrr8lXGnWZPhlS6Z8-105" value="" style="ellipse;whiteSpace=wrap;html=1;aspect=fixed;fillColor=none;" parent="1" vertex="1">
          <mxGeometry x="435" y="440" width="10" height="10" as="geometry" />
        </mxCell>
        <mxCell id="QglXrr8lXGnWZPhlS6Z8-106" value="color" style="text;html=1;align=center;verticalAlign=middle;resizable=0;points=[];autosize=1;strokeColor=none;fillColor=none;" parent="1" vertex="1">
          <mxGeometry x="415" y="415" width="50" height="30" as="geometry" />
        </mxCell>
        <mxCell id="QglXrr8lXGnWZPhlS6Z8-107" value="(0, n)" style="text;html=1;align=center;verticalAlign=middle;resizable=0;points=[];autosize=1;strokeColor=none;fillColor=none;fontSize=10;" parent="1" vertex="1">
          <mxGeometry x="400" y="455" width="50" height="30" as="geometry" />
        </mxCell>
        <mxCell id="QglXrr8lXGnWZPhlS6Z8-109" value="" style="endArrow=none;html=1;rounded=0;exitX=0.208;exitY=0.25;exitDx=0;exitDy=0;exitPerimeter=0;entryX=0.352;entryY=0.904;entryDx=0;entryDy=0;entryPerimeter=0;" parent="1" source="QglXrr8lXGnWZPhlS6Z8-46" target="QglXrr8lXGnWZPhlS6Z8-111" edge="1">
          <mxGeometry width="50" height="50" relative="1" as="geometry">
            <mxPoint x="360" y="490" as="sourcePoint" />
            <mxPoint x="380" y="450" as="targetPoint" />
          </mxGeometry>
        </mxCell>
        <mxCell id="QglXrr8lXGnWZPhlS6Z8-110" value="(0, n)" style="text;html=1;align=center;verticalAlign=middle;resizable=0;points=[];autosize=1;strokeColor=none;fillColor=none;fontSize=10;" parent="1" vertex="1">
          <mxGeometry x="340" y="450" width="50" height="30" as="geometry" />
        </mxCell>
        <mxCell id="QglXrr8lXGnWZPhlS6Z8-111" value="" style="ellipse;whiteSpace=wrap;html=1;aspect=fixed;fillColor=none;" parent="1" vertex="1">
          <mxGeometry x="375" y="440" width="10" height="10" as="geometry" />
        </mxCell>
        <mxCell id="QglXrr8lXGnWZPhlS6Z8-112" value="size" style="text;html=1;align=center;verticalAlign=middle;resizable=0;points=[];autosize=1;strokeColor=none;fillColor=none;" parent="1" vertex="1">
          <mxGeometry x="355" y="415" width="50" height="30" as="geometry" />
        </mxCell>
        <mxCell id="QglXrr8lXGnWZPhlS6Z8-113" value="(1, n)" style="text;html=1;align=center;verticalAlign=middle;resizable=0;points=[];autosize=1;strokeColor=none;fillColor=none;" parent="1" vertex="1">
          <mxGeometry x="290" y="480" width="50" height="30" as="geometry" />
        </mxCell>
        <mxCell id="QglXrr8lXGnWZPhlS6Z8-116" value="" style="endArrow=none;html=1;rounded=0;entryX=0;entryY=0.5;entryDx=0;entryDy=0;exitX=1;exitY=0.5;exitDx=0;exitDy=0;" parent="1" source="QglXrr8lXGnWZPhlS6Z8-117" target="QglXrr8lXGnWZPhlS6Z8-2" edge="1">
          <mxGeometry width="50" height="50" relative="1" as="geometry">
            <mxPoint x="150" y="272" as="sourcePoint" />
            <mxPoint x="150" y="260" as="targetPoint" />
          </mxGeometry>
        </mxCell>
        <mxCell id="QglXrr8lXGnWZPhlS6Z8-117" value="has" style="shape=rhombus;perimeter=rhombusPerimeter;whiteSpace=wrap;html=1;align=center;" parent="1" vertex="1">
          <mxGeometry x="20" y="242" width="120" height="60" as="geometry" />
        </mxCell>
        <mxCell id="QglXrr8lXGnWZPhlS6Z8-118" value="ADDRESS" style="rounded=0;whiteSpace=wrap;html=1;" parent="1" vertex="1">
          <mxGeometry x="-100" y="383" width="120" height="60" as="geometry" />
        </mxCell>
        <mxCell id="QglXrr8lXGnWZPhlS6Z8-119" value="" style="endArrow=none;html=1;rounded=0;entryX=0;entryY=0.5;entryDx=0;entryDy=0;exitX=0.5;exitY=0;exitDx=0;exitDy=0;" parent="1" source="QglXrr8lXGnWZPhlS6Z8-118" target="QglXrr8lXGnWZPhlS6Z8-117" edge="1">
          <mxGeometry width="50" height="50" relative="1" as="geometry">
            <mxPoint x="-40" y="330" as="sourcePoint" />
            <mxPoint x="10" y="280" as="targetPoint" />
            <Array as="points">
              <mxPoint x="-40" y="272" />
            </Array>
          </mxGeometry>
        </mxCell>
        <mxCell id="QglXrr8lXGnWZPhlS6Z8-120" value="" style="endArrow=none;html=1;rounded=0;entryX=0.047;entryY=-0.016;entryDx=0;entryDy=0;entryPerimeter=0;exitX=0.5;exitY=1;exitDx=0;exitDy=0;" parent="1" source="QglXrr8lXGnWZPhlS6Z8-121" target="QglXrr8lXGnWZPhlS6Z8-118" edge="1">
          <mxGeometry width="50" height="50" relative="1" as="geometry">
            <mxPoint x="-110" y="353" as="sourcePoint" />
            <mxPoint x="-100" y="363" as="targetPoint" />
          </mxGeometry>
        </mxCell>
        <mxCell id="QglXrr8lXGnWZPhlS6Z8-121" value="" style="ellipse;whiteSpace=wrap;html=1;aspect=fixed;fillColor=#66B2FF;" parent="1" vertex="1">
          <mxGeometry x="-120" y="343" width="10" height="10" as="geometry" />
        </mxCell>
        <mxCell id="QglXrr8lXGnWZPhlS6Z8-122" value="id" style="text;html=1;align=center;verticalAlign=middle;resizable=0;points=[];autosize=1;strokeColor=none;fillColor=none;" parent="1" vertex="1">
          <mxGeometry x="-145" y="313" width="30" height="30" as="geometry" />
        </mxCell>
        <mxCell id="QglXrr8lXGnWZPhlS6Z8-123" value="" style="endArrow=none;html=1;rounded=0;entryX=0.005;entryY=0.025;entryDx=0;entryDy=0;entryPerimeter=0;exitX=1;exitY=0.5;exitDx=0;exitDy=0;" parent="1" source="QglXrr8lXGnWZPhlS6Z8-125" target="QglXrr8lXGnWZPhlS6Z8-118" edge="1">
          <mxGeometry width="50" height="50" relative="1" as="geometry">
            <mxPoint x="-140" y="373" as="sourcePoint" />
            <mxPoint x="-90" y="373" as="targetPoint" />
            <Array as="points">
              <mxPoint x="-110" y="373" />
            </Array>
          </mxGeometry>
        </mxCell>
        <mxCell id="QglXrr8lXGnWZPhlS6Z8-124" value="country" style="text;html=1;align=center;verticalAlign=middle;resizable=0;points=[];autosize=1;strokeColor=none;fillColor=none;" parent="1" vertex="1">
          <mxGeometry x="-205" y="343" width="60" height="30" as="geometry" />
        </mxCell>
        <mxCell id="QglXrr8lXGnWZPhlS6Z8-125" value="" style="ellipse;whiteSpace=wrap;html=1;aspect=fixed;fillColor=none;" parent="1" vertex="1">
          <mxGeometry x="-150" y="365" width="10" height="10" as="geometry" />
        </mxCell>
        <mxCell id="QglXrr8lXGnWZPhlS6Z8-126" value="" style="endArrow=none;html=1;rounded=0;entryX=-0.004;entryY=0.112;entryDx=0;entryDy=0;exitX=1;exitY=0.5;exitDx=0;exitDy=0;entryPerimeter=0;" parent="1" source="QglXrr8lXGnWZPhlS6Z8-127" target="QglXrr8lXGnWZPhlS6Z8-118" edge="1">
          <mxGeometry width="50" height="50" relative="1" as="geometry">
            <mxPoint x="-140" y="403" as="sourcePoint" />
            <mxPoint x="-100" y="393" as="targetPoint" />
          </mxGeometry>
        </mxCell>
        <mxCell id="QglXrr8lXGnWZPhlS6Z8-127" value="" style="ellipse;whiteSpace=wrap;html=1;aspect=fixed;fillColor=none;" parent="1" vertex="1">
          <mxGeometry x="-150" y="383" width="10" height="10" as="geometry" />
        </mxCell>
        <mxCell id="QglXrr8lXGnWZPhlS6Z8-128" value="province" style="text;html=1;align=center;verticalAlign=middle;resizable=0;points=[];autosize=1;strokeColor=none;fillColor=none;" parent="1" vertex="1">
          <mxGeometry x="-220" y="365" width="70" height="30" as="geometry" />
        </mxCell>
        <mxCell id="QglXrr8lXGnWZPhlS6Z8-129" value="" style="ellipse;whiteSpace=wrap;html=1;aspect=fixed;fillColor=none;" parent="1" vertex="1">
          <mxGeometry x="-150" y="403" width="10" height="10" as="geometry" />
        </mxCell>
        <mxCell id="QglXrr8lXGnWZPhlS6Z8-130" value="city" style="text;html=1;align=center;verticalAlign=middle;resizable=0;points=[];autosize=1;strokeColor=none;fillColor=none;" parent="1" vertex="1">
          <mxGeometry x="-205" y="390" width="40" height="30" as="geometry" />
        </mxCell>
        <mxCell id="QglXrr8lXGnWZPhlS6Z8-131" value="" style="endArrow=none;html=1;rounded=0;entryX=0.001;entryY=0.426;entryDx=0;entryDy=0;exitX=1;exitY=0.5;exitDx=0;exitDy=0;entryPerimeter=0;" parent="1" source="QglXrr8lXGnWZPhlS6Z8-129" target="QglXrr8lXGnWZPhlS6Z8-118" edge="1">
          <mxGeometry width="50" height="50" relative="1" as="geometry">
            <mxPoint x="-150" y="426" as="sourcePoint" />
            <mxPoint x="-110" y="421" as="targetPoint" />
          </mxGeometry>
        </mxCell>
        <mxCell id="QglXrr8lXGnWZPhlS6Z8-132" value="street" style="text;html=1;align=center;verticalAlign=middle;resizable=0;points=[];autosize=1;strokeColor=none;fillColor=none;" parent="1" vertex="1">
          <mxGeometry x="-205" y="413" width="50" height="30" as="geometry" />
        </mxCell>
        <mxCell id="QglXrr8lXGnWZPhlS6Z8-133" value="" style="ellipse;whiteSpace=wrap;html=1;aspect=fixed;fillColor=none;" parent="1" vertex="1">
          <mxGeometry x="-150" y="425" width="10" height="10" as="geometry" />
        </mxCell>
        <mxCell id="QglXrr8lXGnWZPhlS6Z8-134" value="" style="endArrow=none;html=1;rounded=0;entryX=0.002;entryY=0.782;entryDx=0;entryDy=0;exitX=1;exitY=0.5;exitDx=0;exitDy=0;entryPerimeter=0;" parent="1" source="QglXrr8lXGnWZPhlS6Z8-133" target="QglXrr8lXGnWZPhlS6Z8-118" edge="1">
          <mxGeometry width="50" height="50" relative="1" as="geometry">
            <mxPoint x="-159" y="449" as="sourcePoint" />
            <mxPoint x="-110" y="439" as="targetPoint" />
          </mxGeometry>
        </mxCell>
        <mxCell id="QglXrr8lXGnWZPhlS6Z8-135" value="number" style="text;html=1;align=center;verticalAlign=middle;resizable=0;points=[];autosize=1;strokeColor=none;fillColor=none;" parent="1" vertex="1">
          <mxGeometry x="-220" y="435" width="70" height="30" as="geometry" />
        </mxCell>
        <mxCell id="QglXrr8lXGnWZPhlS6Z8-136" value="" style="ellipse;whiteSpace=wrap;html=1;aspect=fixed;fillColor=none;" parent="1" vertex="1">
          <mxGeometry x="-150" y="445" width="10" height="10" as="geometry" />
        </mxCell>
        <mxCell id="QglXrr8lXGnWZPhlS6Z8-137" value="" style="endArrow=none;html=1;rounded=0;entryX=0;entryY=1;entryDx=0;entryDy=0;exitX=1;exitY=0.5;exitDx=0;exitDy=0;" parent="1" source="QglXrr8lXGnWZPhlS6Z8-136" target="QglXrr8lXGnWZPhlS6Z8-118" edge="1">
          <mxGeometry width="50" height="50" relative="1" as="geometry">
            <mxPoint x="-159" y="477" as="sourcePoint" />
            <mxPoint x="-100" y="456" as="targetPoint" />
            <Array as="points">
              <mxPoint x="-120" y="450" />
            </Array>
          </mxGeometry>
        </mxCell>
        <mxCell id="QglXrr8lXGnWZPhlS6Z8-138" value="unit" style="text;html=1;align=center;verticalAlign=middle;resizable=0;points=[];autosize=1;strokeColor=none;fillColor=none;" parent="1" vertex="1">
          <mxGeometry x="-200" y="455" width="40" height="30" as="geometry" />
        </mxCell>
        <mxCell id="QglXrr8lXGnWZPhlS6Z8-139" value="" style="ellipse;whiteSpace=wrap;html=1;aspect=fixed;fillColor=none;" parent="1" vertex="1">
          <mxGeometry x="-150" y="465" width="10" height="10" as="geometry" />
        </mxCell>
        <mxCell id="QglXrr8lXGnWZPhlS6Z8-140" value="" style="endArrow=none;html=1;rounded=0;entryX=0.073;entryY=1.01;entryDx=0;entryDy=0;exitX=1;exitY=0.5;exitDx=0;exitDy=0;entryPerimeter=0;" parent="1" source="QglXrr8lXGnWZPhlS6Z8-139" target="QglXrr8lXGnWZPhlS6Z8-118" edge="1">
          <mxGeometry width="50" height="50" relative="1" as="geometry">
            <mxPoint x="-149" y="497" as="sourcePoint" />
            <mxPoint x="-90" y="463" as="targetPoint" />
            <Array as="points">
              <mxPoint x="-100" y="463" />
            </Array>
          </mxGeometry>
        </mxCell>
        <mxCell id="QglXrr8lXGnWZPhlS6Z8-141" value="(1, 1)" style="text;html=1;align=center;verticalAlign=middle;resizable=0;points=[];autosize=1;strokeColor=none;fillColor=none;" parent="1" vertex="1">
          <mxGeometry x="-40" y="290" width="50" height="30" as="geometry" />
        </mxCell>
        <mxCell id="QglXrr8lXGnWZPhlS6Z8-142" value="" style="endArrow=none;html=1;rounded=0;entryX=0.5;entryY=0.95;entryDx=0;entryDy=0;entryPerimeter=0;exitX=0;exitY=0.5;exitDx=0;exitDy=0;" parent="1" source="QglXrr8lXGnWZPhlS6Z8-143" target="QglXrr8lXGnWZPhlS6Z8-118" edge="1">
          <mxGeometry width="50" height="50" relative="1" as="geometry">
            <mxPoint y="500" as="sourcePoint" />
            <mxPoint x="80" y="490" as="targetPoint" />
            <Array as="points">
              <mxPoint x="-40" y="500" />
            </Array>
          </mxGeometry>
        </mxCell>
        <mxCell id="QglXrr8lXGnWZPhlS6Z8-143" value="ships to" style="shape=rhombus;perimeter=rhombusPerimeter;whiteSpace=wrap;html=1;align=center;" parent="1" vertex="1">
          <mxGeometry x="10" y="470" width="120" height="60" as="geometry" />
        </mxCell>
        <mxCell id="QglXrr8lXGnWZPhlS6Z8-144" value="" style="endArrow=none;html=1;rounded=0;entryX=0;entryY=0.5;entryDx=0;entryDy=0;exitX=1;exitY=0.5;exitDx=0;exitDy=0;" parent="1" source="QglXrr8lXGnWZPhlS6Z8-143" target="QglXrr8lXGnWZPhlS6Z8-64" edge="1">
          <mxGeometry width="50" height="50" relative="1" as="geometry">
            <mxPoint x="110" y="480" as="sourcePoint" />
            <mxPoint x="160" y="430" as="targetPoint" />
          </mxGeometry>
        </mxCell>
        <mxCell id="QglXrr8lXGnWZPhlS6Z8-145" value="(0, n)" style="text;html=1;align=center;verticalAlign=middle;resizable=0;points=[];autosize=1;strokeColor=none;fillColor=none;" parent="1" vertex="1">
          <mxGeometry x="-50" y="450" width="50" height="30" as="geometry" />
        </mxCell>
        <mxCell id="QglXrr8lXGnWZPhlS6Z8-146" value="(1, 1)" style="text;html=1;align=center;verticalAlign=middle;resizable=0;points=[];autosize=1;strokeColor=none;fillColor=none;" parent="1" vertex="1">
          <mxGeometry x="130" y="468" width="50" height="30" as="geometry" />
        </mxCell>
        <mxCell id="QglXrr8lXGnWZPhlS6Z8-147" value="(0, n)" style="text;html=1;align=center;verticalAlign=middle;resizable=0;points=[];autosize=1;strokeColor=none;fillColor=none;" parent="1" vertex="1">
          <mxGeometry x="150" y="240" width="50" height="30" as="geometry" />
        </mxCell>
        <mxCell id="PsknmnWmkfHTtHcopvf5-152" value="users" style="shape=table;startSize=30;container=1;collapsible=1;childLayout=tableLayout;fixedRows=1;rowLines=0;fontStyle=1;align=center;resizeLast=1;html=1;" parent="1" vertex="1">
          <mxGeometry x="490" y="1307" width="180" height="150" as="geometry" />
        </mxCell>
        <mxCell id="PsknmnWmkfHTtHcopvf5-153" value="" style="shape=tableRow;horizontal=0;startSize=0;swimlaneHead=0;swimlaneBody=0;fillColor=none;collapsible=0;dropTarget=0;points=[[0,0.5],[1,0.5]];portConstraint=eastwest;top=0;left=0;right=0;bottom=1;" parent="PsknmnWmkfHTtHcopvf5-152" vertex="1">
          <mxGeometry y="30" width="180" height="30" as="geometry" />
        </mxCell>
        <mxCell id="PsknmnWmkfHTtHcopvf5-154" value="PK" style="shape=partialRectangle;connectable=0;fillColor=none;top=0;left=0;bottom=0;right=0;fontStyle=1;overflow=hidden;whiteSpace=wrap;html=1;" parent="PsknmnWmkfHTtHcopvf5-153" vertex="1">
          <mxGeometry width="30" height="30" as="geometry">
            <mxRectangle width="30" height="30" as="alternateBounds" />
          </mxGeometry>
        </mxCell>
        <mxCell id="PsknmnWmkfHTtHcopvf5-155" value="id" style="shape=partialRectangle;connectable=0;fillColor=none;top=0;left=0;bottom=0;right=0;align=left;spacingLeft=6;fontStyle=5;overflow=hidden;whiteSpace=wrap;html=1;" parent="PsknmnWmkfHTtHcopvf5-153" vertex="1">
          <mxGeometry x="30" width="150" height="30" as="geometry">
            <mxRectangle width="150" height="30" as="alternateBounds" />
          </mxGeometry>
        </mxCell>
        <mxCell id="PsknmnWmkfHTtHcopvf5-156" value="" style="shape=tableRow;horizontal=0;startSize=0;swimlaneHead=0;swimlaneBody=0;fillColor=none;collapsible=0;dropTarget=0;points=[[0,0.5],[1,0.5]];portConstraint=eastwest;top=0;left=0;right=0;bottom=0;" parent="PsknmnWmkfHTtHcopvf5-152" vertex="1">
          <mxGeometry y="60" width="180" height="30" as="geometry" />
        </mxCell>
        <mxCell id="PsknmnWmkfHTtHcopvf5-157" value="UQ" style="shape=partialRectangle;connectable=0;fillColor=none;top=0;left=0;bottom=0;right=0;editable=1;overflow=hidden;whiteSpace=wrap;html=1;" parent="PsknmnWmkfHTtHcopvf5-156" vertex="1">
          <mxGeometry width="30" height="30" as="geometry">
            <mxRectangle width="30" height="30" as="alternateBounds" />
          </mxGeometry>
        </mxCell>
        <mxCell id="PsknmnWmkfHTtHcopvf5-158" value="email" style="shape=partialRectangle;connectable=0;fillColor=none;top=0;left=0;bottom=0;right=0;align=left;spacingLeft=6;overflow=hidden;whiteSpace=wrap;html=1;" parent="PsknmnWmkfHTtHcopvf5-156" vertex="1">
          <mxGeometry x="30" width="150" height="30" as="geometry">
            <mxRectangle width="150" height="30" as="alternateBounds" />
          </mxGeometry>
        </mxCell>
        <mxCell id="PsknmnWmkfHTtHcopvf5-159" value="" style="shape=tableRow;horizontal=0;startSize=0;swimlaneHead=0;swimlaneBody=0;fillColor=none;collapsible=0;dropTarget=0;points=[[0,0.5],[1,0.5]];portConstraint=eastwest;top=0;left=0;right=0;bottom=0;" parent="PsknmnWmkfHTtHcopvf5-152" vertex="1">
          <mxGeometry y="90" width="180" height="30" as="geometry" />
        </mxCell>
        <mxCell id="PsknmnWmkfHTtHcopvf5-160" value="" style="shape=partialRectangle;connectable=0;fillColor=none;top=0;left=0;bottom=0;right=0;editable=1;overflow=hidden;whiteSpace=wrap;html=1;" parent="PsknmnWmkfHTtHcopvf5-159" vertex="1">
          <mxGeometry width="30" height="30" as="geometry">
            <mxRectangle width="30" height="30" as="alternateBounds" />
          </mxGeometry>
        </mxCell>
        <mxCell id="PsknmnWmkfHTtHcopvf5-161" value="password" style="shape=partialRectangle;connectable=0;fillColor=none;top=0;left=0;bottom=0;right=0;align=left;spacingLeft=6;overflow=hidden;whiteSpace=wrap;html=1;" parent="PsknmnWmkfHTtHcopvf5-159" vertex="1">
          <mxGeometry x="30" width="150" height="30" as="geometry">
            <mxRectangle width="150" height="30" as="alternateBounds" />
          </mxGeometry>
        </mxCell>
        <mxCell id="PsknmnWmkfHTtHcopvf5-162" value="" style="shape=tableRow;horizontal=0;startSize=0;swimlaneHead=0;swimlaneBody=0;fillColor=none;collapsible=0;dropTarget=0;points=[[0,0.5],[1,0.5]];portConstraint=eastwest;top=0;left=0;right=0;bottom=0;" parent="PsknmnWmkfHTtHcopvf5-152" vertex="1">
          <mxGeometry y="120" width="180" height="30" as="geometry" />
        </mxCell>
        <mxCell id="PsknmnWmkfHTtHcopvf5-163" value="" style="shape=partialRectangle;connectable=0;fillColor=none;top=0;left=0;bottom=0;right=0;editable=1;overflow=hidden;whiteSpace=wrap;html=1;" parent="PsknmnWmkfHTtHcopvf5-162" vertex="1">
          <mxGeometry width="30" height="30" as="geometry">
            <mxRectangle width="30" height="30" as="alternateBounds" />
          </mxGeometry>
        </mxCell>
        <mxCell id="PsknmnWmkfHTtHcopvf5-164" value="name" style="shape=partialRectangle;connectable=0;fillColor=none;top=0;left=0;bottom=0;right=0;align=left;spacingLeft=6;overflow=hidden;whiteSpace=wrap;html=1;" parent="PsknmnWmkfHTtHcopvf5-162" vertex="1">
          <mxGeometry x="30" width="150" height="30" as="geometry">
            <mxRectangle width="150" height="30" as="alternateBounds" />
          </mxGeometry>
        </mxCell>
        <mxCell id="PsknmnWmkfHTtHcopvf5-165" value="store " style="shape=table;startSize=30;container=1;collapsible=1;childLayout=tableLayout;fixedRows=1;rowLines=0;fontStyle=1;align=center;resizeLast=1;html=1;" parent="1" vertex="1">
          <mxGeometry x="770" y="1087" width="180" height="120" as="geometry" />
        </mxCell>
        <mxCell id="PsknmnWmkfHTtHcopvf5-166" value="" style="shape=tableRow;horizontal=0;startSize=0;swimlaneHead=0;swimlaneBody=0;fillColor=none;collapsible=0;dropTarget=0;points=[[0,0.5],[1,0.5]];portConstraint=eastwest;top=0;left=0;right=0;bottom=1;" parent="PsknmnWmkfHTtHcopvf5-165" vertex="1">
          <mxGeometry y="30" width="180" height="30" as="geometry" />
        </mxCell>
        <mxCell id="PsknmnWmkfHTtHcopvf5-167" value="PK" style="shape=partialRectangle;connectable=0;fillColor=none;top=0;left=0;bottom=0;right=0;fontStyle=1;overflow=hidden;whiteSpace=wrap;html=1;" parent="PsknmnWmkfHTtHcopvf5-166" vertex="1">
          <mxGeometry width="30" height="30" as="geometry">
            <mxRectangle width="30" height="30" as="alternateBounds" />
          </mxGeometry>
        </mxCell>
        <mxCell id="PsknmnWmkfHTtHcopvf5-168" value="id" style="shape=partialRectangle;connectable=0;fillColor=none;top=0;left=0;bottom=0;right=0;align=left;spacingLeft=6;fontStyle=5;overflow=hidden;whiteSpace=wrap;html=1;" parent="PsknmnWmkfHTtHcopvf5-166" vertex="1">
          <mxGeometry x="30" width="150" height="30" as="geometry">
            <mxRectangle width="150" height="30" as="alternateBounds" />
          </mxGeometry>
        </mxCell>
        <mxCell id="PsknmnWmkfHTtHcopvf5-169" style="shape=tableRow;horizontal=0;startSize=0;swimlaneHead=0;swimlaneBody=0;fillColor=none;collapsible=0;dropTarget=0;points=[[0,0.5],[1,0.5]];portConstraint=eastwest;top=0;left=0;right=0;bottom=0;" parent="PsknmnWmkfHTtHcopvf5-165" vertex="1">
          <mxGeometry y="60" width="180" height="30" as="geometry" />
        </mxCell>
        <mxCell id="PsknmnWmkfHTtHcopvf5-170" value="FK" style="shape=partialRectangle;connectable=0;fillColor=none;top=0;left=0;bottom=0;right=0;editable=1;overflow=hidden;whiteSpace=wrap;html=1;" parent="PsknmnWmkfHTtHcopvf5-169" vertex="1">
          <mxGeometry width="30" height="30" as="geometry">
            <mxRectangle width="30" height="30" as="alternateBounds" />
          </mxGeometry>
        </mxCell>
        <mxCell id="PsknmnWmkfHTtHcopvf5-171" value="user_id" style="shape=partialRectangle;connectable=0;fillColor=none;top=0;left=0;bottom=0;right=0;align=left;spacingLeft=6;overflow=hidden;whiteSpace=wrap;html=1;" parent="PsknmnWmkfHTtHcopvf5-169" vertex="1">
          <mxGeometry x="30" width="150" height="30" as="geometry">
            <mxRectangle width="150" height="30" as="alternateBounds" />
          </mxGeometry>
        </mxCell>
        <mxCell id="PsknmnWmkfHTtHcopvf5-175" value="" style="shape=tableRow;horizontal=0;startSize=0;swimlaneHead=0;swimlaneBody=0;fillColor=none;collapsible=0;dropTarget=0;points=[[0,0.5],[1,0.5]];portConstraint=eastwest;top=0;left=0;right=0;bottom=0;" parent="PsknmnWmkfHTtHcopvf5-165" vertex="1">
          <mxGeometry y="90" width="180" height="30" as="geometry" />
        </mxCell>
        <mxCell id="PsknmnWmkfHTtHcopvf5-176" value="" style="shape=partialRectangle;connectable=0;fillColor=none;top=0;left=0;bottom=0;right=0;editable=1;overflow=hidden;whiteSpace=wrap;html=1;" parent="PsknmnWmkfHTtHcopvf5-175" vertex="1">
          <mxGeometry width="30" height="30" as="geometry">
            <mxRectangle width="30" height="30" as="alternateBounds" />
          </mxGeometry>
        </mxCell>
        <mxCell id="PsknmnWmkfHTtHcopvf5-177" value="name" style="shape=partialRectangle;connectable=0;fillColor=none;top=0;left=0;bottom=0;right=0;align=left;spacingLeft=6;overflow=hidden;whiteSpace=wrap;html=1;" parent="PsknmnWmkfHTtHcopvf5-175" vertex="1">
          <mxGeometry x="30" width="150" height="30" as="geometry">
            <mxRectangle width="150" height="30" as="alternateBounds" />
          </mxGeometry>
        </mxCell>
        <mxCell id="PsknmnWmkfHTtHcopvf5-178" value="" style="fontSize=12;html=1;endArrow=ERzeroToMany;startArrow=ERmandOne;rounded=0;exitX=1.002;exitY=0.223;exitDx=0;exitDy=0;entryX=0;entryY=0.5;entryDx=0;entryDy=0;exitPerimeter=0;" parent="1" source="PsknmnWmkfHTtHcopvf5-153" target="PsknmnWmkfHTtHcopvf5-169" edge="1">
          <mxGeometry width="100" height="100" relative="1" as="geometry">
            <mxPoint x="625" y="1187" as="sourcePoint" />
            <mxPoint x="720" y="1267" as="targetPoint" />
            <Array as="points">
              <mxPoint x="730" y="1344" />
              <mxPoint x="730" y="1162" />
            </Array>
          </mxGeometry>
        </mxCell>
        <mxCell id="PsknmnWmkfHTtHcopvf5-179" value="product" style="shape=table;startSize=30;container=1;collapsible=1;childLayout=tableLayout;fixedRows=1;rowLines=0;fontStyle=1;align=center;resizeLast=1;html=1;" parent="1" vertex="1">
          <mxGeometry x="410" y="1047" width="180" height="240" as="geometry" />
        </mxCell>
        <mxCell id="PsknmnWmkfHTtHcopvf5-180" value="" style="shape=tableRow;horizontal=0;startSize=0;swimlaneHead=0;swimlaneBody=0;fillColor=none;collapsible=0;dropTarget=0;points=[[0,0.5],[1,0.5]];portConstraint=eastwest;top=0;left=0;right=0;bottom=1;" parent="PsknmnWmkfHTtHcopvf5-179" vertex="1">
          <mxGeometry y="30" width="180" height="30" as="geometry" />
        </mxCell>
        <mxCell id="PsknmnWmkfHTtHcopvf5-181" value="PK" style="shape=partialRectangle;connectable=0;fillColor=none;top=0;left=0;bottom=0;right=0;fontStyle=1;overflow=hidden;whiteSpace=wrap;html=1;" parent="PsknmnWmkfHTtHcopvf5-180" vertex="1">
          <mxGeometry width="30" height="30" as="geometry">
            <mxRectangle width="30" height="30" as="alternateBounds" />
          </mxGeometry>
        </mxCell>
        <mxCell id="PsknmnWmkfHTtHcopvf5-182" value="id" style="shape=partialRectangle;connectable=0;fillColor=none;top=0;left=0;bottom=0;right=0;align=left;spacingLeft=6;fontStyle=5;overflow=hidden;whiteSpace=wrap;html=1;" parent="PsknmnWmkfHTtHcopvf5-180" vertex="1">
          <mxGeometry x="30" width="150" height="30" as="geometry">
            <mxRectangle width="150" height="30" as="alternateBounds" />
          </mxGeometry>
        </mxCell>
        <mxCell id="PsknmnWmkfHTtHcopvf5-183" style="shape=tableRow;horizontal=0;startSize=0;swimlaneHead=0;swimlaneBody=0;fillColor=none;collapsible=0;dropTarget=0;points=[[0,0.5],[1,0.5]];portConstraint=eastwest;top=0;left=0;right=0;bottom=0;" parent="PsknmnWmkfHTtHcopvf5-179" vertex="1">
          <mxGeometry y="60" width="180" height="30" as="geometry" />
        </mxCell>
        <mxCell id="PsknmnWmkfHTtHcopvf5-184" value="FK" style="shape=partialRectangle;connectable=0;fillColor=none;top=0;left=0;bottom=0;right=0;editable=1;overflow=hidden;whiteSpace=wrap;html=1;" parent="PsknmnWmkfHTtHcopvf5-183" vertex="1">
          <mxGeometry width="30" height="30" as="geometry">
            <mxRectangle width="30" height="30" as="alternateBounds" />
          </mxGeometry>
        </mxCell>
        <mxCell id="PsknmnWmkfHTtHcopvf5-185" value="store_id" style="shape=partialRectangle;connectable=0;fillColor=none;top=0;left=0;bottom=0;right=0;align=left;spacingLeft=6;overflow=hidden;whiteSpace=wrap;html=1;" parent="PsknmnWmkfHTtHcopvf5-183" vertex="1">
          <mxGeometry x="30" width="150" height="30" as="geometry">
            <mxRectangle width="150" height="30" as="alternateBounds" />
          </mxGeometry>
        </mxCell>
        <mxCell id="PsknmnWmkfHTtHcopvf5-189" style="shape=tableRow;horizontal=0;startSize=0;swimlaneHead=0;swimlaneBody=0;fillColor=none;collapsible=0;dropTarget=0;points=[[0,0.5],[1,0.5]];portConstraint=eastwest;top=0;left=0;right=0;bottom=0;" parent="PsknmnWmkfHTtHcopvf5-179" vertex="1">
          <mxGeometry y="90" width="180" height="30" as="geometry" />
        </mxCell>
        <mxCell id="PsknmnWmkfHTtHcopvf5-190" value="" style="shape=partialRectangle;connectable=0;fillColor=none;top=0;left=0;bottom=0;right=0;editable=1;overflow=hidden;whiteSpace=wrap;html=1;" parent="PsknmnWmkfHTtHcopvf5-189" vertex="1">
          <mxGeometry width="30" height="30" as="geometry">
            <mxRectangle width="30" height="30" as="alternateBounds" />
          </mxGeometry>
        </mxCell>
        <mxCell id="PsknmnWmkfHTtHcopvf5-191" value="name" style="shape=partialRectangle;connectable=0;fillColor=none;top=0;left=0;bottom=0;right=0;align=left;spacingLeft=6;overflow=hidden;whiteSpace=wrap;html=1;" parent="PsknmnWmkfHTtHcopvf5-189" vertex="1">
          <mxGeometry x="30" width="150" height="30" as="geometry">
            <mxRectangle width="150" height="30" as="alternateBounds" />
          </mxGeometry>
        </mxCell>
        <mxCell id="PsknmnWmkfHTtHcopvf5-192" style="shape=tableRow;horizontal=0;startSize=0;swimlaneHead=0;swimlaneBody=0;fillColor=none;collapsible=0;dropTarget=0;points=[[0,0.5],[1,0.5]];portConstraint=eastwest;top=0;left=0;right=0;bottom=0;" parent="PsknmnWmkfHTtHcopvf5-179" vertex="1">
          <mxGeometry y="120" width="180" height="30" as="geometry" />
        </mxCell>
        <mxCell id="PsknmnWmkfHTtHcopvf5-193" value="" style="shape=partialRectangle;connectable=0;fillColor=none;top=0;left=0;bottom=0;right=0;editable=1;overflow=hidden;whiteSpace=wrap;html=1;" parent="PsknmnWmkfHTtHcopvf5-192" vertex="1">
          <mxGeometry width="30" height="30" as="geometry">
            <mxRectangle width="30" height="30" as="alternateBounds" />
          </mxGeometry>
        </mxCell>
        <mxCell id="PsknmnWmkfHTtHcopvf5-194" value="description" style="shape=partialRectangle;connectable=0;fillColor=none;top=0;left=0;bottom=0;right=0;align=left;spacingLeft=6;overflow=hidden;whiteSpace=wrap;html=1;" parent="PsknmnWmkfHTtHcopvf5-192" vertex="1">
          <mxGeometry x="30" width="150" height="30" as="geometry">
            <mxRectangle width="150" height="30" as="alternateBounds" />
          </mxGeometry>
        </mxCell>
        <mxCell id="PsknmnWmkfHTtHcopvf5-198" value="" style="shape=tableRow;horizontal=0;startSize=0;swimlaneHead=0;swimlaneBody=0;fillColor=none;collapsible=0;dropTarget=0;points=[[0,0.5],[1,0.5]];portConstraint=eastwest;top=0;left=0;right=0;bottom=0;" parent="PsknmnWmkfHTtHcopvf5-179" vertex="1">
          <mxGeometry y="150" width="180" height="30" as="geometry" />
        </mxCell>
        <mxCell id="PsknmnWmkfHTtHcopvf5-199" value="" style="shape=partialRectangle;connectable=0;fillColor=none;top=0;left=0;bottom=0;right=0;editable=1;overflow=hidden;whiteSpace=wrap;html=1;" parent="PsknmnWmkfHTtHcopvf5-198" vertex="1">
          <mxGeometry width="30" height="30" as="geometry">
            <mxRectangle width="30" height="30" as="alternateBounds" />
          </mxGeometry>
        </mxCell>
        <mxCell id="PsknmnWmkfHTtHcopvf5-200" value="price" style="shape=partialRectangle;connectable=0;fillColor=none;top=0;left=0;bottom=0;right=0;align=left;spacingLeft=6;overflow=hidden;whiteSpace=wrap;html=1;" parent="PsknmnWmkfHTtHcopvf5-198" vertex="1">
          <mxGeometry x="30" width="150" height="30" as="geometry">
            <mxRectangle width="150" height="30" as="alternateBounds" />
          </mxGeometry>
        </mxCell>
        <mxCell id="PsknmnWmkfHTtHcopvf5-201" value="" style="shape=tableRow;horizontal=0;startSize=0;swimlaneHead=0;swimlaneBody=0;fillColor=none;collapsible=0;dropTarget=0;points=[[0,0.5],[1,0.5]];portConstraint=eastwest;top=0;left=0;right=0;bottom=0;" parent="PsknmnWmkfHTtHcopvf5-179" vertex="1">
          <mxGeometry y="180" width="180" height="30" as="geometry" />
        </mxCell>
        <mxCell id="PsknmnWmkfHTtHcopvf5-202" value="" style="shape=partialRectangle;connectable=0;fillColor=none;top=0;left=0;bottom=0;right=0;editable=1;overflow=hidden;whiteSpace=wrap;html=1;" parent="PsknmnWmkfHTtHcopvf5-201" vertex="1">
          <mxGeometry width="30" height="30" as="geometry">
            <mxRectangle width="30" height="30" as="alternateBounds" />
          </mxGeometry>
        </mxCell>
        <mxCell id="PsknmnWmkfHTtHcopvf5-203" value="discount" style="shape=partialRectangle;connectable=0;fillColor=none;top=0;left=0;bottom=0;right=0;align=left;spacingLeft=6;overflow=hidden;whiteSpace=wrap;html=1;" parent="PsknmnWmkfHTtHcopvf5-201" vertex="1">
          <mxGeometry x="30" width="150" height="30" as="geometry">
            <mxRectangle width="150" height="30" as="alternateBounds" />
          </mxGeometry>
        </mxCell>
        <mxCell id="EEHZTLl8jueeZTyToHx3-1" style="shape=tableRow;horizontal=0;startSize=0;swimlaneHead=0;swimlaneBody=0;fillColor=none;collapsible=0;dropTarget=0;points=[[0,0.5],[1,0.5]];portConstraint=eastwest;top=0;left=0;right=0;bottom=0;" vertex="1" parent="PsknmnWmkfHTtHcopvf5-179">
          <mxGeometry y="210" width="180" height="30" as="geometry" />
        </mxCell>
        <mxCell id="EEHZTLl8jueeZTyToHx3-2" style="shape=partialRectangle;connectable=0;fillColor=none;top=0;left=0;bottom=0;right=0;editable=1;overflow=hidden;whiteSpace=wrap;html=1;" vertex="1" parent="EEHZTLl8jueeZTyToHx3-1">
          <mxGeometry width="30" height="30" as="geometry">
            <mxRectangle width="30" height="30" as="alternateBounds" />
          </mxGeometry>
        </mxCell>
        <mxCell id="EEHZTLl8jueeZTyToHx3-3" value="stock" style="shape=partialRectangle;connectable=0;fillColor=none;top=0;left=0;bottom=0;right=0;align=left;spacingLeft=6;overflow=hidden;whiteSpace=wrap;html=1;" vertex="1" parent="EEHZTLl8jueeZTyToHx3-1">
          <mxGeometry x="30" width="150" height="30" as="geometry">
            <mxRectangle width="150" height="30" as="alternateBounds" />
          </mxGeometry>
        </mxCell>
        <mxCell id="PsknmnWmkfHTtHcopvf5-204" value="" style="fontSize=12;html=1;endArrow=ERzeroToMany;startArrow=ERmandOne;rounded=0;exitX=0;exitY=0.5;exitDx=0;exitDy=0;entryX=1;entryY=0.5;entryDx=0;entryDy=0;" parent="1" source="PsknmnWmkfHTtHcopvf5-166" target="PsknmnWmkfHTtHcopvf5-183" edge="1">
          <mxGeometry width="100" height="100" relative="1" as="geometry">
            <mxPoint x="660" y="1132" as="sourcePoint" />
            <mxPoint x="780" y="962" as="targetPoint" />
            <Array as="points">
              <mxPoint x="650" y="1132" />
              <mxPoint x="650" y="1122" />
            </Array>
          </mxGeometry>
        </mxCell>
        <mxCell id="PsknmnWmkfHTtHcopvf5-205" value="products_sizes" style="shape=table;startSize=30;container=1;collapsible=1;childLayout=tableLayout;fixedRows=1;rowLines=0;fontStyle=1;align=center;resizeLast=1;html=1;" parent="1" vertex="1">
          <mxGeometry x="20" y="975" width="180" height="120" as="geometry" />
        </mxCell>
        <mxCell id="PsknmnWmkfHTtHcopvf5-206" value="" style="shape=tableRow;horizontal=0;startSize=0;swimlaneHead=0;swimlaneBody=0;fillColor=none;collapsible=0;dropTarget=0;points=[[0,0.5],[1,0.5]];portConstraint=eastwest;top=0;left=0;right=0;bottom=1;" parent="PsknmnWmkfHTtHcopvf5-205" vertex="1">
          <mxGeometry y="30" width="180" height="30" as="geometry" />
        </mxCell>
        <mxCell id="PsknmnWmkfHTtHcopvf5-207" value="PK" style="shape=partialRectangle;connectable=0;fillColor=none;top=0;left=0;bottom=0;right=0;fontStyle=1;overflow=hidden;whiteSpace=wrap;html=1;" parent="PsknmnWmkfHTtHcopvf5-206" vertex="1">
          <mxGeometry width="30" height="30" as="geometry">
            <mxRectangle width="30" height="30" as="alternateBounds" />
          </mxGeometry>
        </mxCell>
        <mxCell id="PsknmnWmkfHTtHcopvf5-208" value="id" style="shape=partialRectangle;connectable=0;fillColor=none;top=0;left=0;bottom=0;right=0;align=left;spacingLeft=6;fontStyle=5;overflow=hidden;whiteSpace=wrap;html=1;" parent="PsknmnWmkfHTtHcopvf5-206" vertex="1">
          <mxGeometry x="30" width="150" height="30" as="geometry">
            <mxRectangle width="150" height="30" as="alternateBounds" />
          </mxGeometry>
        </mxCell>
        <mxCell id="PsknmnWmkfHTtHcopvf5-209" value="" style="shape=tableRow;horizontal=0;startSize=0;swimlaneHead=0;swimlaneBody=0;fillColor=none;collapsible=0;dropTarget=0;points=[[0,0.5],[1,0.5]];portConstraint=eastwest;top=0;left=0;right=0;bottom=0;" parent="PsknmnWmkfHTtHcopvf5-205" vertex="1">
          <mxGeometry y="60" width="180" height="30" as="geometry" />
        </mxCell>
        <mxCell id="PsknmnWmkfHTtHcopvf5-210" value="FK" style="shape=partialRectangle;connectable=0;fillColor=none;top=0;left=0;bottom=0;right=0;editable=1;overflow=hidden;whiteSpace=wrap;html=1;" parent="PsknmnWmkfHTtHcopvf5-209" vertex="1">
          <mxGeometry width="30" height="30" as="geometry">
            <mxRectangle width="30" height="30" as="alternateBounds" />
          </mxGeometry>
        </mxCell>
        <mxCell id="PsknmnWmkfHTtHcopvf5-211" value="product_id" style="shape=partialRectangle;connectable=0;fillColor=none;top=0;left=0;bottom=0;right=0;align=left;spacingLeft=6;overflow=hidden;whiteSpace=wrap;html=1;" parent="PsknmnWmkfHTtHcopvf5-209" vertex="1">
          <mxGeometry x="30" width="150" height="30" as="geometry">
            <mxRectangle width="150" height="30" as="alternateBounds" />
          </mxGeometry>
        </mxCell>
        <mxCell id="PsknmnWmkfHTtHcopvf5-212" value="" style="shape=tableRow;horizontal=0;startSize=0;swimlaneHead=0;swimlaneBody=0;fillColor=none;collapsible=0;dropTarget=0;points=[[0,0.5],[1,0.5]];portConstraint=eastwest;top=0;left=0;right=0;bottom=0;" parent="PsknmnWmkfHTtHcopvf5-205" vertex="1">
          <mxGeometry y="90" width="180" height="30" as="geometry" />
        </mxCell>
        <mxCell id="PsknmnWmkfHTtHcopvf5-213" value="" style="shape=partialRectangle;connectable=0;fillColor=none;top=0;left=0;bottom=0;right=0;editable=1;overflow=hidden;whiteSpace=wrap;html=1;" parent="PsknmnWmkfHTtHcopvf5-212" vertex="1">
          <mxGeometry width="30" height="30" as="geometry">
            <mxRectangle width="30" height="30" as="alternateBounds" />
          </mxGeometry>
        </mxCell>
        <mxCell id="PsknmnWmkfHTtHcopvf5-214" value="size" style="shape=partialRectangle;connectable=0;fillColor=none;top=0;left=0;bottom=0;right=0;align=left;spacingLeft=6;overflow=hidden;whiteSpace=wrap;html=1;" parent="PsknmnWmkfHTtHcopvf5-212" vertex="1">
          <mxGeometry x="30" width="150" height="30" as="geometry">
            <mxRectangle width="150" height="30" as="alternateBounds" />
          </mxGeometry>
        </mxCell>
        <mxCell id="PsknmnWmkfHTtHcopvf5-218" value="" style="fontSize=12;html=1;endArrow=ERzeroToMany;startArrow=ERmandOne;rounded=0;exitX=0;exitY=0.5;exitDx=0;exitDy=0;entryX=1;entryY=0.5;entryDx=0;entryDy=0;" parent="1" source="PsknmnWmkfHTtHcopvf5-183" target="PsknmnWmkfHTtHcopvf5-209" edge="1">
          <mxGeometry width="100" height="100" relative="1" as="geometry">
            <mxPoint x="360" y="1207" as="sourcePoint" />
            <mxPoint x="180" y="1107" as="targetPoint" />
            <Array as="points">
              <mxPoint x="310" y="1122" />
              <mxPoint x="250" y="1050" />
            </Array>
          </mxGeometry>
        </mxCell>
        <mxCell id="PsknmnWmkfHTtHcopvf5-219" value="products_colors" style="shape=table;startSize=30;container=1;collapsible=1;childLayout=tableLayout;fixedRows=1;rowLines=0;fontStyle=1;align=center;resizeLast=1;html=1;" parent="1" vertex="1">
          <mxGeometry x="20" y="1147" width="180" height="120" as="geometry" />
        </mxCell>
        <mxCell id="PsknmnWmkfHTtHcopvf5-220" value="" style="shape=tableRow;horizontal=0;startSize=0;swimlaneHead=0;swimlaneBody=0;fillColor=none;collapsible=0;dropTarget=0;points=[[0,0.5],[1,0.5]];portConstraint=eastwest;top=0;left=0;right=0;bottom=1;" parent="PsknmnWmkfHTtHcopvf5-219" vertex="1">
          <mxGeometry y="30" width="180" height="30" as="geometry" />
        </mxCell>
        <mxCell id="PsknmnWmkfHTtHcopvf5-221" value="PK" style="shape=partialRectangle;connectable=0;fillColor=none;top=0;left=0;bottom=0;right=0;fontStyle=1;overflow=hidden;whiteSpace=wrap;html=1;" parent="PsknmnWmkfHTtHcopvf5-220" vertex="1">
          <mxGeometry width="30" height="30" as="geometry">
            <mxRectangle width="30" height="30" as="alternateBounds" />
          </mxGeometry>
        </mxCell>
        <mxCell id="PsknmnWmkfHTtHcopvf5-222" value="id" style="shape=partialRectangle;connectable=0;fillColor=none;top=0;left=0;bottom=0;right=0;align=left;spacingLeft=6;fontStyle=5;overflow=hidden;whiteSpace=wrap;html=1;" parent="PsknmnWmkfHTtHcopvf5-220" vertex="1">
          <mxGeometry x="30" width="150" height="30" as="geometry">
            <mxRectangle width="150" height="30" as="alternateBounds" />
          </mxGeometry>
        </mxCell>
        <mxCell id="PsknmnWmkfHTtHcopvf5-223" value="" style="shape=tableRow;horizontal=0;startSize=0;swimlaneHead=0;swimlaneBody=0;fillColor=none;collapsible=0;dropTarget=0;points=[[0,0.5],[1,0.5]];portConstraint=eastwest;top=0;left=0;right=0;bottom=0;" parent="PsknmnWmkfHTtHcopvf5-219" vertex="1">
          <mxGeometry y="60" width="180" height="30" as="geometry" />
        </mxCell>
        <mxCell id="PsknmnWmkfHTtHcopvf5-224" value="FK" style="shape=partialRectangle;connectable=0;fillColor=none;top=0;left=0;bottom=0;right=0;editable=1;overflow=hidden;whiteSpace=wrap;html=1;" parent="PsknmnWmkfHTtHcopvf5-223" vertex="1">
          <mxGeometry width="30" height="30" as="geometry">
            <mxRectangle width="30" height="30" as="alternateBounds" />
          </mxGeometry>
        </mxCell>
        <mxCell id="PsknmnWmkfHTtHcopvf5-225" value="product_id" style="shape=partialRectangle;connectable=0;fillColor=none;top=0;left=0;bottom=0;right=0;align=left;spacingLeft=6;overflow=hidden;whiteSpace=wrap;html=1;" parent="PsknmnWmkfHTtHcopvf5-223" vertex="1">
          <mxGeometry x="30" width="150" height="30" as="geometry">
            <mxRectangle width="150" height="30" as="alternateBounds" />
          </mxGeometry>
        </mxCell>
        <mxCell id="PsknmnWmkfHTtHcopvf5-226" value="" style="shape=tableRow;horizontal=0;startSize=0;swimlaneHead=0;swimlaneBody=0;fillColor=none;collapsible=0;dropTarget=0;points=[[0,0.5],[1,0.5]];portConstraint=eastwest;top=0;left=0;right=0;bottom=0;" parent="PsknmnWmkfHTtHcopvf5-219" vertex="1">
          <mxGeometry y="90" width="180" height="30" as="geometry" />
        </mxCell>
        <mxCell id="PsknmnWmkfHTtHcopvf5-227" value="" style="shape=partialRectangle;connectable=0;fillColor=none;top=0;left=0;bottom=0;right=0;editable=1;overflow=hidden;whiteSpace=wrap;html=1;" parent="PsknmnWmkfHTtHcopvf5-226" vertex="1">
          <mxGeometry width="30" height="30" as="geometry">
            <mxRectangle width="30" height="30" as="alternateBounds" />
          </mxGeometry>
        </mxCell>
        <mxCell id="PsknmnWmkfHTtHcopvf5-228" value="color" style="shape=partialRectangle;connectable=0;fillColor=none;top=0;left=0;bottom=0;right=0;align=left;spacingLeft=6;overflow=hidden;whiteSpace=wrap;html=1;" parent="PsknmnWmkfHTtHcopvf5-226" vertex="1">
          <mxGeometry x="30" width="150" height="30" as="geometry">
            <mxRectangle width="150" height="30" as="alternateBounds" />
          </mxGeometry>
        </mxCell>
        <mxCell id="PsknmnWmkfHTtHcopvf5-229" value="" style="fontSize=12;html=1;endArrow=ERzeroToMany;startArrow=ERmandOne;rounded=0;exitX=0;exitY=0.5;exitDx=0;exitDy=0;entryX=1;entryY=0.5;entryDx=0;entryDy=0;" parent="1" source="PsknmnWmkfHTtHcopvf5-192" target="PsknmnWmkfHTtHcopvf5-223" edge="1">
          <mxGeometry width="100" height="100" relative="1" as="geometry">
            <mxPoint x="400" y="1186.6599999999999" as="sourcePoint" />
            <mxPoint x="260" y="1186.6599999999999" as="targetPoint" />
            <Array as="points">
              <mxPoint x="370" y="1182" />
              <mxPoint x="330" y="1222" />
            </Array>
          </mxGeometry>
        </mxCell>
        <mxCell id="PsknmnWmkfHTtHcopvf5-230" value="products_images" style="shape=table;startSize=30;container=1;collapsible=1;childLayout=tableLayout;fixedRows=1;rowLines=0;fontStyle=1;align=center;resizeLast=1;html=1;" parent="1" vertex="1">
          <mxGeometry x="70" y="800" width="180" height="90" as="geometry" />
        </mxCell>
        <mxCell id="PsknmnWmkfHTtHcopvf5-234" value="" style="shape=tableRow;horizontal=0;startSize=0;swimlaneHead=0;swimlaneBody=0;fillColor=none;collapsible=0;dropTarget=0;points=[[0,0.5],[1,0.5]];portConstraint=eastwest;top=0;left=0;right=0;bottom=0;" parent="PsknmnWmkfHTtHcopvf5-230" vertex="1">
          <mxGeometry y="30" width="180" height="30" as="geometry" />
        </mxCell>
        <mxCell id="PsknmnWmkfHTtHcopvf5-235" value="FK" style="shape=partialRectangle;connectable=0;fillColor=none;top=0;left=0;bottom=0;right=0;editable=1;overflow=hidden;whiteSpace=wrap;html=1;" parent="PsknmnWmkfHTtHcopvf5-234" vertex="1">
          <mxGeometry width="30" height="30" as="geometry">
            <mxRectangle width="30" height="30" as="alternateBounds" />
          </mxGeometry>
        </mxCell>
        <mxCell id="PsknmnWmkfHTtHcopvf5-236" value="product_id" style="shape=partialRectangle;connectable=0;fillColor=none;top=0;left=0;bottom=0;right=0;align=left;spacingLeft=6;overflow=hidden;whiteSpace=wrap;html=1;" parent="PsknmnWmkfHTtHcopvf5-234" vertex="1">
          <mxGeometry x="30" width="150" height="30" as="geometry">
            <mxRectangle width="150" height="30" as="alternateBounds" />
          </mxGeometry>
        </mxCell>
        <mxCell id="PsknmnWmkfHTtHcopvf5-237" value="" style="shape=tableRow;horizontal=0;startSize=0;swimlaneHead=0;swimlaneBody=0;fillColor=none;collapsible=0;dropTarget=0;points=[[0,0.5],[1,0.5]];portConstraint=eastwest;top=0;left=0;right=0;bottom=0;" parent="PsknmnWmkfHTtHcopvf5-230" vertex="1">
          <mxGeometry y="60" width="180" height="30" as="geometry" />
        </mxCell>
        <mxCell id="PsknmnWmkfHTtHcopvf5-238" value="" style="shape=partialRectangle;connectable=0;fillColor=none;top=0;left=0;bottom=0;right=0;editable=1;overflow=hidden;whiteSpace=wrap;html=1;" parent="PsknmnWmkfHTtHcopvf5-237" vertex="1">
          <mxGeometry width="30" height="30" as="geometry">
            <mxRectangle width="30" height="30" as="alternateBounds" />
          </mxGeometry>
        </mxCell>
        <mxCell id="PsknmnWmkfHTtHcopvf5-239" value="url" style="shape=partialRectangle;connectable=0;fillColor=none;top=0;left=0;bottom=0;right=0;align=left;spacingLeft=6;overflow=hidden;whiteSpace=wrap;html=1;" parent="PsknmnWmkfHTtHcopvf5-237" vertex="1">
          <mxGeometry x="30" width="150" height="30" as="geometry">
            <mxRectangle width="150" height="30" as="alternateBounds" />
          </mxGeometry>
        </mxCell>
        <mxCell id="PsknmnWmkfHTtHcopvf5-240" value="" style="edgeStyle=entityRelationEdgeStyle;fontSize=12;html=1;endArrow=ERoneToMany;startArrow=ERmandOne;rounded=0;entryX=1;entryY=0.5;entryDx=0;entryDy=0;exitX=0;exitY=0.5;exitDx=0;exitDy=0;" parent="1" source="PsknmnWmkfHTtHcopvf5-180" target="PsknmnWmkfHTtHcopvf5-234" edge="1">
          <mxGeometry width="100" height="100" relative="1" as="geometry">
            <mxPoint x="300" y="977" as="sourcePoint" />
            <mxPoint x="400" y="877" as="targetPoint" />
            <Array as="points">
              <mxPoint x="380" y="957" />
            </Array>
          </mxGeometry>
        </mxCell>
        <mxCell id="PsknmnWmkfHTtHcopvf5-241" value="&lt;div&gt;Update: CASCADE&lt;/div&gt;&lt;div&gt;Delete: CASCADE&lt;br&gt;&lt;/div&gt;" style="text;html=1;align=center;verticalAlign=middle;resizable=0;points=[];autosize=1;strokeColor=none;fillColor=none;" parent="1" vertex="1">
          <mxGeometry x="300" y="837" width="130" height="40" as="geometry" />
        </mxCell>
        <mxCell id="PsknmnWmkfHTtHcopvf5-242" value="order_products" style="shape=table;startSize=30;container=1;collapsible=1;childLayout=tableLayout;fixedRows=1;rowLines=0;fontStyle=1;align=center;resizeLast=1;html=1;" parent="1" vertex="1">
          <mxGeometry x="-40" y="1507" width="180" height="270" as="geometry" />
        </mxCell>
        <mxCell id="PsknmnWmkfHTtHcopvf5-243" value="" style="shape=tableRow;horizontal=0;startSize=0;swimlaneHead=0;swimlaneBody=0;fillColor=none;collapsible=0;dropTarget=0;points=[[0,0.5],[1,0.5]];portConstraint=eastwest;top=0;left=0;right=0;bottom=1;" parent="PsknmnWmkfHTtHcopvf5-242" vertex="1">
          <mxGeometry y="30" width="180" height="30" as="geometry" />
        </mxCell>
        <mxCell id="PsknmnWmkfHTtHcopvf5-244" value="PK" style="shape=partialRectangle;connectable=0;fillColor=none;top=0;left=0;bottom=0;right=0;fontStyle=1;overflow=hidden;whiteSpace=wrap;html=1;" parent="PsknmnWmkfHTtHcopvf5-243" vertex="1">
          <mxGeometry width="30" height="30" as="geometry">
            <mxRectangle width="30" height="30" as="alternateBounds" />
          </mxGeometry>
        </mxCell>
        <mxCell id="PsknmnWmkfHTtHcopvf5-245" value="id" style="shape=partialRectangle;connectable=0;fillColor=none;top=0;left=0;bottom=0;right=0;align=left;spacingLeft=6;fontStyle=5;overflow=hidden;whiteSpace=wrap;html=1;" parent="PsknmnWmkfHTtHcopvf5-243" vertex="1">
          <mxGeometry x="30" width="150" height="30" as="geometry">
            <mxRectangle width="150" height="30" as="alternateBounds" />
          </mxGeometry>
        </mxCell>
        <mxCell id="PsknmnWmkfHTtHcopvf5-246" style="shape=tableRow;horizontal=0;startSize=0;swimlaneHead=0;swimlaneBody=0;fillColor=none;collapsible=0;dropTarget=0;points=[[0,0.5],[1,0.5]];portConstraint=eastwest;top=0;left=0;right=0;bottom=0;" parent="PsknmnWmkfHTtHcopvf5-242" vertex="1">
          <mxGeometry y="60" width="180" height="30" as="geometry" />
        </mxCell>
        <mxCell id="PsknmnWmkfHTtHcopvf5-247" value="FK1" style="shape=partialRectangle;connectable=0;fillColor=none;top=0;left=0;bottom=0;right=0;editable=1;overflow=hidden;whiteSpace=wrap;html=1;" parent="PsknmnWmkfHTtHcopvf5-246" vertex="1">
          <mxGeometry width="30" height="30" as="geometry">
            <mxRectangle width="30" height="30" as="alternateBounds" />
          </mxGeometry>
        </mxCell>
        <mxCell id="PsknmnWmkfHTtHcopvf5-248" value="product_id" style="shape=partialRectangle;connectable=0;fillColor=none;top=0;left=0;bottom=0;right=0;align=left;spacingLeft=6;overflow=hidden;whiteSpace=wrap;html=1;" parent="PsknmnWmkfHTtHcopvf5-246" vertex="1">
          <mxGeometry x="30" width="150" height="30" as="geometry">
            <mxRectangle width="150" height="30" as="alternateBounds" />
          </mxGeometry>
        </mxCell>
        <mxCell id="PsknmnWmkfHTtHcopvf5-249" style="shape=tableRow;horizontal=0;startSize=0;swimlaneHead=0;swimlaneBody=0;fillColor=none;collapsible=0;dropTarget=0;points=[[0,0.5],[1,0.5]];portConstraint=eastwest;top=0;left=0;right=0;bottom=0;" parent="PsknmnWmkfHTtHcopvf5-242" vertex="1">
          <mxGeometry y="90" width="180" height="30" as="geometry" />
        </mxCell>
        <mxCell id="PsknmnWmkfHTtHcopvf5-250" value="FK2" style="shape=partialRectangle;connectable=0;fillColor=none;top=0;left=0;bottom=0;right=0;editable=1;overflow=hidden;whiteSpace=wrap;html=1;" parent="PsknmnWmkfHTtHcopvf5-249" vertex="1">
          <mxGeometry width="30" height="30" as="geometry">
            <mxRectangle width="30" height="30" as="alternateBounds" />
          </mxGeometry>
        </mxCell>
        <mxCell id="PsknmnWmkfHTtHcopvf5-251" value="order_id" style="shape=partialRectangle;connectable=0;fillColor=none;top=0;left=0;bottom=0;right=0;align=left;spacingLeft=6;overflow=hidden;whiteSpace=wrap;html=1;" parent="PsknmnWmkfHTtHcopvf5-249" vertex="1">
          <mxGeometry x="30" width="150" height="30" as="geometry">
            <mxRectangle width="150" height="30" as="alternateBounds" />
          </mxGeometry>
        </mxCell>
        <mxCell id="PsknmnWmkfHTtHcopvf5-252" value="" style="shape=tableRow;horizontal=0;startSize=0;swimlaneHead=0;swimlaneBody=0;fillColor=none;collapsible=0;dropTarget=0;points=[[0,0.5],[1,0.5]];portConstraint=eastwest;top=0;left=0;right=0;bottom=0;" parent="PsknmnWmkfHTtHcopvf5-242" vertex="1">
          <mxGeometry y="120" width="180" height="30" as="geometry" />
        </mxCell>
        <mxCell id="PsknmnWmkfHTtHcopvf5-253" value="FK3" style="shape=partialRectangle;connectable=0;fillColor=none;top=0;left=0;bottom=0;right=0;editable=1;overflow=hidden;whiteSpace=wrap;html=1;" parent="PsknmnWmkfHTtHcopvf5-252" vertex="1">
          <mxGeometry width="30" height="30" as="geometry">
            <mxRectangle width="30" height="30" as="alternateBounds" />
          </mxGeometry>
        </mxCell>
        <mxCell id="PsknmnWmkfHTtHcopvf5-254" value="product_color_id" style="shape=partialRectangle;connectable=0;fillColor=none;top=0;left=0;bottom=0;right=0;align=left;spacingLeft=6;overflow=hidden;whiteSpace=wrap;html=1;" parent="PsknmnWmkfHTtHcopvf5-252" vertex="1">
          <mxGeometry x="30" width="150" height="30" as="geometry">
            <mxRectangle width="150" height="30" as="alternateBounds" />
          </mxGeometry>
        </mxCell>
        <mxCell id="PsknmnWmkfHTtHcopvf5-255" value="" style="shape=tableRow;horizontal=0;startSize=0;swimlaneHead=0;swimlaneBody=0;fillColor=none;collapsible=0;dropTarget=0;points=[[0,0.5],[1,0.5]];portConstraint=eastwest;top=0;left=0;right=0;bottom=0;" parent="PsknmnWmkfHTtHcopvf5-242" vertex="1">
          <mxGeometry y="150" width="180" height="30" as="geometry" />
        </mxCell>
        <mxCell id="PsknmnWmkfHTtHcopvf5-256" value="FK4" style="shape=partialRectangle;connectable=0;fillColor=none;top=0;left=0;bottom=0;right=0;editable=1;overflow=hidden;whiteSpace=wrap;html=1;" parent="PsknmnWmkfHTtHcopvf5-255" vertex="1">
          <mxGeometry width="30" height="30" as="geometry">
            <mxRectangle width="30" height="30" as="alternateBounds" />
          </mxGeometry>
        </mxCell>
        <mxCell id="PsknmnWmkfHTtHcopvf5-257" value="product_size_id" style="shape=partialRectangle;connectable=0;fillColor=none;top=0;left=0;bottom=0;right=0;align=left;spacingLeft=6;overflow=hidden;whiteSpace=wrap;html=1;" parent="PsknmnWmkfHTtHcopvf5-255" vertex="1">
          <mxGeometry x="30" width="150" height="30" as="geometry">
            <mxRectangle width="150" height="30" as="alternateBounds" />
          </mxGeometry>
        </mxCell>
        <mxCell id="PsknmnWmkfHTtHcopvf5-258" value="" style="shape=tableRow;horizontal=0;startSize=0;swimlaneHead=0;swimlaneBody=0;fillColor=none;collapsible=0;dropTarget=0;points=[[0,0.5],[1,0.5]];portConstraint=eastwest;top=0;left=0;right=0;bottom=0;" parent="PsknmnWmkfHTtHcopvf5-242" vertex="1">
          <mxGeometry y="180" width="180" height="30" as="geometry" />
        </mxCell>
        <mxCell id="PsknmnWmkfHTtHcopvf5-259" value="" style="shape=partialRectangle;connectable=0;fillColor=none;top=0;left=0;bottom=0;right=0;editable=1;overflow=hidden;whiteSpace=wrap;html=1;" parent="PsknmnWmkfHTtHcopvf5-258" vertex="1">
          <mxGeometry width="30" height="30" as="geometry">
            <mxRectangle width="30" height="30" as="alternateBounds" />
          </mxGeometry>
        </mxCell>
        <mxCell id="PsknmnWmkfHTtHcopvf5-260" value="quantity" style="shape=partialRectangle;connectable=0;fillColor=none;top=0;left=0;bottom=0;right=0;align=left;spacingLeft=6;overflow=hidden;whiteSpace=wrap;html=1;" parent="PsknmnWmkfHTtHcopvf5-258" vertex="1">
          <mxGeometry x="30" width="150" height="30" as="geometry">
            <mxRectangle width="150" height="30" as="alternateBounds" />
          </mxGeometry>
        </mxCell>
        <mxCell id="PsknmnWmkfHTtHcopvf5-264" style="shape=tableRow;horizontal=0;startSize=0;swimlaneHead=0;swimlaneBody=0;fillColor=none;collapsible=0;dropTarget=0;points=[[0,0.5],[1,0.5]];portConstraint=eastwest;top=0;left=0;right=0;bottom=0;" parent="PsknmnWmkfHTtHcopvf5-242" vertex="1">
          <mxGeometry y="210" width="180" height="30" as="geometry" />
        </mxCell>
        <mxCell id="PsknmnWmkfHTtHcopvf5-265" style="shape=partialRectangle;connectable=0;fillColor=none;top=0;left=0;bottom=0;right=0;editable=1;overflow=hidden;whiteSpace=wrap;html=1;" parent="PsknmnWmkfHTtHcopvf5-264" vertex="1">
          <mxGeometry width="30" height="30" as="geometry">
            <mxRectangle width="30" height="30" as="alternateBounds" />
          </mxGeometry>
        </mxCell>
        <mxCell id="PsknmnWmkfHTtHcopvf5-266" value="price" style="shape=partialRectangle;connectable=0;fillColor=none;top=0;left=0;bottom=0;right=0;align=left;spacingLeft=6;overflow=hidden;whiteSpace=wrap;html=1;" parent="PsknmnWmkfHTtHcopvf5-264" vertex="1">
          <mxGeometry x="30" width="150" height="30" as="geometry">
            <mxRectangle width="150" height="30" as="alternateBounds" />
          </mxGeometry>
        </mxCell>
        <mxCell id="PsknmnWmkfHTtHcopvf5-261" style="shape=tableRow;horizontal=0;startSize=0;swimlaneHead=0;swimlaneBody=0;fillColor=none;collapsible=0;dropTarget=0;points=[[0,0.5],[1,0.5]];portConstraint=eastwest;top=0;left=0;right=0;bottom=0;" parent="PsknmnWmkfHTtHcopvf5-242" vertex="1">
          <mxGeometry y="240" width="180" height="30" as="geometry" />
        </mxCell>
        <mxCell id="PsknmnWmkfHTtHcopvf5-262" style="shape=partialRectangle;connectable=0;fillColor=none;top=0;left=0;bottom=0;right=0;editable=1;overflow=hidden;whiteSpace=wrap;html=1;" parent="PsknmnWmkfHTtHcopvf5-261" vertex="1">
          <mxGeometry width="30" height="30" as="geometry">
            <mxRectangle width="30" height="30" as="alternateBounds" />
          </mxGeometry>
        </mxCell>
        <mxCell id="PsknmnWmkfHTtHcopvf5-263" value="discount" style="shape=partialRectangle;connectable=0;fillColor=none;top=0;left=0;bottom=0;right=0;align=left;spacingLeft=6;overflow=hidden;whiteSpace=wrap;html=1;" parent="PsknmnWmkfHTtHcopvf5-261" vertex="1">
          <mxGeometry x="30" width="150" height="30" as="geometry">
            <mxRectangle width="150" height="30" as="alternateBounds" />
          </mxGeometry>
        </mxCell>
        <mxCell id="PsknmnWmkfHTtHcopvf5-267" value="order" style="shape=table;startSize=30;container=1;collapsible=1;childLayout=tableLayout;fixedRows=1;rowLines=0;fontStyle=1;align=center;resizeLast=1;html=1;" parent="1" vertex="1">
          <mxGeometry x="290" y="1527" width="180" height="210" as="geometry" />
        </mxCell>
        <mxCell id="PsknmnWmkfHTtHcopvf5-268" value="" style="shape=tableRow;horizontal=0;startSize=0;swimlaneHead=0;swimlaneBody=0;fillColor=none;collapsible=0;dropTarget=0;points=[[0,0.5],[1,0.5]];portConstraint=eastwest;top=0;left=0;right=0;bottom=1;" parent="PsknmnWmkfHTtHcopvf5-267" vertex="1">
          <mxGeometry y="30" width="180" height="30" as="geometry" />
        </mxCell>
        <mxCell id="PsknmnWmkfHTtHcopvf5-269" value="PK" style="shape=partialRectangle;connectable=0;fillColor=none;top=0;left=0;bottom=0;right=0;fontStyle=1;overflow=hidden;whiteSpace=wrap;html=1;" parent="PsknmnWmkfHTtHcopvf5-268" vertex="1">
          <mxGeometry width="30" height="30" as="geometry">
            <mxRectangle width="30" height="30" as="alternateBounds" />
          </mxGeometry>
        </mxCell>
        <mxCell id="PsknmnWmkfHTtHcopvf5-270" value="ID" style="shape=partialRectangle;connectable=0;fillColor=none;top=0;left=0;bottom=0;right=0;align=left;spacingLeft=6;fontStyle=5;overflow=hidden;whiteSpace=wrap;html=1;" parent="PsknmnWmkfHTtHcopvf5-268" vertex="1">
          <mxGeometry x="30" width="150" height="30" as="geometry">
            <mxRectangle width="150" height="30" as="alternateBounds" />
          </mxGeometry>
        </mxCell>
        <mxCell id="PsknmnWmkfHTtHcopvf5-271" style="shape=tableRow;horizontal=0;startSize=0;swimlaneHead=0;swimlaneBody=0;fillColor=none;collapsible=0;dropTarget=0;points=[[0,0.5],[1,0.5]];portConstraint=eastwest;top=0;left=0;right=0;bottom=0;" parent="PsknmnWmkfHTtHcopvf5-267" vertex="1">
          <mxGeometry y="60" width="180" height="30" as="geometry" />
        </mxCell>
        <mxCell id="PsknmnWmkfHTtHcopvf5-272" value="FK1" style="shape=partialRectangle;connectable=0;fillColor=none;top=0;left=0;bottom=0;right=0;editable=1;overflow=hidden;whiteSpace=wrap;html=1;" parent="PsknmnWmkfHTtHcopvf5-271" vertex="1">
          <mxGeometry width="30" height="30" as="geometry">
            <mxRectangle width="30" height="30" as="alternateBounds" />
          </mxGeometry>
        </mxCell>
        <mxCell id="PsknmnWmkfHTtHcopvf5-273" value="user_id" style="shape=partialRectangle;connectable=0;fillColor=none;top=0;left=0;bottom=0;right=0;align=left;spacingLeft=6;overflow=hidden;whiteSpace=wrap;html=1;" parent="PsknmnWmkfHTtHcopvf5-271" vertex="1">
          <mxGeometry x="30" width="150" height="30" as="geometry">
            <mxRectangle width="150" height="30" as="alternateBounds" />
          </mxGeometry>
        </mxCell>
        <mxCell id="PsknmnWmkfHTtHcopvf5-274" style="shape=tableRow;horizontal=0;startSize=0;swimlaneHead=0;swimlaneBody=0;fillColor=none;collapsible=0;dropTarget=0;points=[[0,0.5],[1,0.5]];portConstraint=eastwest;top=0;left=0;right=0;bottom=0;" parent="PsknmnWmkfHTtHcopvf5-267" vertex="1">
          <mxGeometry y="90" width="180" height="30" as="geometry" />
        </mxCell>
        <mxCell id="PsknmnWmkfHTtHcopvf5-275" value="FK2" style="shape=partialRectangle;connectable=0;fillColor=none;top=0;left=0;bottom=0;right=0;editable=1;overflow=hidden;whiteSpace=wrap;html=1;" parent="PsknmnWmkfHTtHcopvf5-274" vertex="1">
          <mxGeometry width="30" height="30" as="geometry">
            <mxRectangle width="30" height="30" as="alternateBounds" />
          </mxGeometry>
        </mxCell>
        <mxCell id="PsknmnWmkfHTtHcopvf5-276" value="address_id" style="shape=partialRectangle;connectable=0;fillColor=none;top=0;left=0;bottom=0;right=0;align=left;spacingLeft=6;overflow=hidden;whiteSpace=wrap;html=1;" parent="PsknmnWmkfHTtHcopvf5-274" vertex="1">
          <mxGeometry x="30" width="150" height="30" as="geometry">
            <mxRectangle width="150" height="30" as="alternateBounds" />
          </mxGeometry>
        </mxCell>
        <mxCell id="PsknmnWmkfHTtHcopvf5-277" value="" style="shape=tableRow;horizontal=0;startSize=0;swimlaneHead=0;swimlaneBody=0;fillColor=none;collapsible=0;dropTarget=0;points=[[0,0.5],[1,0.5]];portConstraint=eastwest;top=0;left=0;right=0;bottom=0;" parent="PsknmnWmkfHTtHcopvf5-267" vertex="1">
          <mxGeometry y="120" width="180" height="30" as="geometry" />
        </mxCell>
        <mxCell id="PsknmnWmkfHTtHcopvf5-278" value="UQ" style="shape=partialRectangle;connectable=0;fillColor=none;top=0;left=0;bottom=0;right=0;editable=1;overflow=hidden;whiteSpace=wrap;html=1;" parent="PsknmnWmkfHTtHcopvf5-277" vertex="1">
          <mxGeometry width="30" height="30" as="geometry">
            <mxRectangle width="30" height="30" as="alternateBounds" />
          </mxGeometry>
        </mxCell>
        <mxCell id="PsknmnWmkfHTtHcopvf5-279" value="invoice_number" style="shape=partialRectangle;connectable=0;fillColor=none;top=0;left=0;bottom=0;right=0;align=left;spacingLeft=6;overflow=hidden;whiteSpace=wrap;html=1;" parent="PsknmnWmkfHTtHcopvf5-277" vertex="1">
          <mxGeometry x="30" width="150" height="30" as="geometry">
            <mxRectangle width="150" height="30" as="alternateBounds" />
          </mxGeometry>
        </mxCell>
        <mxCell id="PsknmnWmkfHTtHcopvf5-280" value="" style="shape=tableRow;horizontal=0;startSize=0;swimlaneHead=0;swimlaneBody=0;fillColor=none;collapsible=0;dropTarget=0;points=[[0,0.5],[1,0.5]];portConstraint=eastwest;top=0;left=0;right=0;bottom=0;" parent="PsknmnWmkfHTtHcopvf5-267" vertex="1">
          <mxGeometry y="150" width="180" height="30" as="geometry" />
        </mxCell>
        <mxCell id="PsknmnWmkfHTtHcopvf5-281" value="" style="shape=partialRectangle;connectable=0;fillColor=none;top=0;left=0;bottom=0;right=0;editable=1;overflow=hidden;whiteSpace=wrap;html=1;" parent="PsknmnWmkfHTtHcopvf5-280" vertex="1">
          <mxGeometry width="30" height="30" as="geometry">
            <mxRectangle width="30" height="30" as="alternateBounds" />
          </mxGeometry>
        </mxCell>
        <mxCell id="PsknmnWmkfHTtHcopvf5-282" value="total_price" style="shape=partialRectangle;connectable=0;fillColor=none;top=0;left=0;bottom=0;right=0;align=left;spacingLeft=6;overflow=hidden;whiteSpace=wrap;html=1;" parent="PsknmnWmkfHTtHcopvf5-280" vertex="1">
          <mxGeometry x="30" width="150" height="30" as="geometry">
            <mxRectangle width="150" height="30" as="alternateBounds" />
          </mxGeometry>
        </mxCell>
        <mxCell id="PsknmnWmkfHTtHcopvf5-283" value="" style="shape=tableRow;horizontal=0;startSize=0;swimlaneHead=0;swimlaneBody=0;fillColor=none;collapsible=0;dropTarget=0;points=[[0,0.5],[1,0.5]];portConstraint=eastwest;top=0;left=0;right=0;bottom=0;" parent="PsknmnWmkfHTtHcopvf5-267" vertex="1">
          <mxGeometry y="180" width="180" height="30" as="geometry" />
        </mxCell>
        <mxCell id="PsknmnWmkfHTtHcopvf5-284" value="" style="shape=partialRectangle;connectable=0;fillColor=none;top=0;left=0;bottom=0;right=0;editable=1;overflow=hidden;whiteSpace=wrap;html=1;" parent="PsknmnWmkfHTtHcopvf5-283" vertex="1">
          <mxGeometry width="30" height="30" as="geometry">
            <mxRectangle width="30" height="30" as="alternateBounds" />
          </mxGeometry>
        </mxCell>
        <mxCell id="PsknmnWmkfHTtHcopvf5-285" value="status" style="shape=partialRectangle;connectable=0;fillColor=none;top=0;left=0;bottom=0;right=0;align=left;spacingLeft=6;overflow=hidden;whiteSpace=wrap;html=1;" parent="PsknmnWmkfHTtHcopvf5-283" vertex="1">
          <mxGeometry x="30" width="150" height="30" as="geometry">
            <mxRectangle width="150" height="30" as="alternateBounds" />
          </mxGeometry>
        </mxCell>
        <mxCell id="PsknmnWmkfHTtHcopvf5-286" value="" style="edgeStyle=entityRelationEdgeStyle;fontSize=12;html=1;endArrow=ERoneToMany;startArrow=ERmandOne;rounded=0;entryX=1;entryY=0.5;entryDx=0;entryDy=0;exitX=0;exitY=0.5;exitDx=0;exitDy=0;" parent="1" source="PsknmnWmkfHTtHcopvf5-268" target="PsknmnWmkfHTtHcopvf5-249" edge="1">
          <mxGeometry width="100" height="100" relative="1" as="geometry">
            <mxPoint x="320" y="1897" as="sourcePoint" />
            <mxPoint x="420" y="1797" as="targetPoint" />
          </mxGeometry>
        </mxCell>
        <mxCell id="PsknmnWmkfHTtHcopvf5-287" value="addresses" style="shape=table;startSize=30;container=1;collapsible=1;childLayout=tableLayout;fixedRows=1;rowLines=0;fontStyle=1;align=center;resizeLast=1;html=1;" parent="1" vertex="1">
          <mxGeometry x="690" y="1577" width="180" height="300" as="geometry" />
        </mxCell>
        <mxCell id="PsknmnWmkfHTtHcopvf5-288" value="" style="shape=tableRow;horizontal=0;startSize=0;swimlaneHead=0;swimlaneBody=0;fillColor=none;collapsible=0;dropTarget=0;points=[[0,0.5],[1,0.5]];portConstraint=eastwest;top=0;left=0;right=0;bottom=1;" parent="PsknmnWmkfHTtHcopvf5-287" vertex="1">
          <mxGeometry y="30" width="180" height="30" as="geometry" />
        </mxCell>
        <mxCell id="PsknmnWmkfHTtHcopvf5-289" value="PK" style="shape=partialRectangle;connectable=0;fillColor=none;top=0;left=0;bottom=0;right=0;fontStyle=1;overflow=hidden;whiteSpace=wrap;html=1;" parent="PsknmnWmkfHTtHcopvf5-288" vertex="1">
          <mxGeometry width="30" height="30" as="geometry">
            <mxRectangle width="30" height="30" as="alternateBounds" />
          </mxGeometry>
        </mxCell>
        <mxCell id="PsknmnWmkfHTtHcopvf5-290" value="id" style="shape=partialRectangle;connectable=0;fillColor=none;top=0;left=0;bottom=0;right=0;align=left;spacingLeft=6;fontStyle=5;overflow=hidden;whiteSpace=wrap;html=1;" parent="PsknmnWmkfHTtHcopvf5-288" vertex="1">
          <mxGeometry x="30" width="150" height="30" as="geometry">
            <mxRectangle width="150" height="30" as="alternateBounds" />
          </mxGeometry>
        </mxCell>
        <mxCell id="PsknmnWmkfHTtHcopvf5-291" style="shape=tableRow;horizontal=0;startSize=0;swimlaneHead=0;swimlaneBody=0;fillColor=none;collapsible=0;dropTarget=0;points=[[0,0.5],[1,0.5]];portConstraint=eastwest;top=0;left=0;right=0;bottom=0;" parent="PsknmnWmkfHTtHcopvf5-287" vertex="1">
          <mxGeometry y="60" width="180" height="30" as="geometry" />
        </mxCell>
        <mxCell id="PsknmnWmkfHTtHcopvf5-292" value="FK1" style="shape=partialRectangle;connectable=0;fillColor=none;top=0;left=0;bottom=0;right=0;editable=1;overflow=hidden;whiteSpace=wrap;html=1;" parent="PsknmnWmkfHTtHcopvf5-291" vertex="1">
          <mxGeometry width="30" height="30" as="geometry">
            <mxRectangle width="30" height="30" as="alternateBounds" />
          </mxGeometry>
        </mxCell>
        <mxCell id="PsknmnWmkfHTtHcopvf5-293" value="user_id" style="shape=partialRectangle;connectable=0;fillColor=none;top=0;left=0;bottom=0;right=0;align=left;spacingLeft=6;overflow=hidden;whiteSpace=wrap;html=1;" parent="PsknmnWmkfHTtHcopvf5-291" vertex="1">
          <mxGeometry x="30" width="150" height="30" as="geometry">
            <mxRectangle width="150" height="30" as="alternateBounds" />
          </mxGeometry>
        </mxCell>
        <mxCell id="PsknmnWmkfHTtHcopvf5-297" value="" style="shape=tableRow;horizontal=0;startSize=0;swimlaneHead=0;swimlaneBody=0;fillColor=none;collapsible=0;dropTarget=0;points=[[0,0.5],[1,0.5]];portConstraint=eastwest;top=0;left=0;right=0;bottom=0;" parent="PsknmnWmkfHTtHcopvf5-287" vertex="1">
          <mxGeometry y="90" width="180" height="30" as="geometry" />
        </mxCell>
        <mxCell id="PsknmnWmkfHTtHcopvf5-298" value="" style="shape=partialRectangle;connectable=0;fillColor=none;top=0;left=0;bottom=0;right=0;editable=1;overflow=hidden;whiteSpace=wrap;html=1;" parent="PsknmnWmkfHTtHcopvf5-297" vertex="1">
          <mxGeometry width="30" height="30" as="geometry">
            <mxRectangle width="30" height="30" as="alternateBounds" />
          </mxGeometry>
        </mxCell>
        <mxCell id="PsknmnWmkfHTtHcopvf5-299" value="country" style="shape=partialRectangle;connectable=0;fillColor=none;top=0;left=0;bottom=0;right=0;align=left;spacingLeft=6;overflow=hidden;whiteSpace=wrap;html=1;" parent="PsknmnWmkfHTtHcopvf5-297" vertex="1">
          <mxGeometry x="30" width="150" height="30" as="geometry">
            <mxRectangle width="150" height="30" as="alternateBounds" />
          </mxGeometry>
        </mxCell>
        <mxCell id="PsknmnWmkfHTtHcopvf5-300" value="" style="shape=tableRow;horizontal=0;startSize=0;swimlaneHead=0;swimlaneBody=0;fillColor=none;collapsible=0;dropTarget=0;points=[[0,0.5],[1,0.5]];portConstraint=eastwest;top=0;left=0;right=0;bottom=0;" parent="PsknmnWmkfHTtHcopvf5-287" vertex="1">
          <mxGeometry y="120" width="180" height="30" as="geometry" />
        </mxCell>
        <mxCell id="PsknmnWmkfHTtHcopvf5-301" value="" style="shape=partialRectangle;connectable=0;fillColor=none;top=0;left=0;bottom=0;right=0;editable=1;overflow=hidden;whiteSpace=wrap;html=1;" parent="PsknmnWmkfHTtHcopvf5-300" vertex="1">
          <mxGeometry width="30" height="30" as="geometry">
            <mxRectangle width="30" height="30" as="alternateBounds" />
          </mxGeometry>
        </mxCell>
        <mxCell id="PsknmnWmkfHTtHcopvf5-302" value="province" style="shape=partialRectangle;connectable=0;fillColor=none;top=0;left=0;bottom=0;right=0;align=left;spacingLeft=6;overflow=hidden;whiteSpace=wrap;html=1;" parent="PsknmnWmkfHTtHcopvf5-300" vertex="1">
          <mxGeometry x="30" width="150" height="30" as="geometry">
            <mxRectangle width="150" height="30" as="alternateBounds" />
          </mxGeometry>
        </mxCell>
        <mxCell id="PsknmnWmkfHTtHcopvf5-303" value="" style="shape=tableRow;horizontal=0;startSize=0;swimlaneHead=0;swimlaneBody=0;fillColor=none;collapsible=0;dropTarget=0;points=[[0,0.5],[1,0.5]];portConstraint=eastwest;top=0;left=0;right=0;bottom=0;" parent="PsknmnWmkfHTtHcopvf5-287" vertex="1">
          <mxGeometry y="150" width="180" height="30" as="geometry" />
        </mxCell>
        <mxCell id="PsknmnWmkfHTtHcopvf5-304" value="" style="shape=partialRectangle;connectable=0;fillColor=none;top=0;left=0;bottom=0;right=0;editable=1;overflow=hidden;whiteSpace=wrap;html=1;" parent="PsknmnWmkfHTtHcopvf5-303" vertex="1">
          <mxGeometry width="30" height="30" as="geometry">
            <mxRectangle width="30" height="30" as="alternateBounds" />
          </mxGeometry>
        </mxCell>
        <mxCell id="PsknmnWmkfHTtHcopvf5-305" value="city" style="shape=partialRectangle;connectable=0;fillColor=none;top=0;left=0;bottom=0;right=0;align=left;spacingLeft=6;overflow=hidden;whiteSpace=wrap;html=1;" parent="PsknmnWmkfHTtHcopvf5-303" vertex="1">
          <mxGeometry x="30" width="150" height="30" as="geometry">
            <mxRectangle width="150" height="30" as="alternateBounds" />
          </mxGeometry>
        </mxCell>
        <mxCell id="PsknmnWmkfHTtHcopvf5-306" style="shape=tableRow;horizontal=0;startSize=0;swimlaneHead=0;swimlaneBody=0;fillColor=none;collapsible=0;dropTarget=0;points=[[0,0.5],[1,0.5]];portConstraint=eastwest;top=0;left=0;right=0;bottom=0;" parent="PsknmnWmkfHTtHcopvf5-287" vertex="1">
          <mxGeometry y="180" width="180" height="30" as="geometry" />
        </mxCell>
        <mxCell id="PsknmnWmkfHTtHcopvf5-307" style="shape=partialRectangle;connectable=0;fillColor=none;top=0;left=0;bottom=0;right=0;editable=1;overflow=hidden;whiteSpace=wrap;html=1;" parent="PsknmnWmkfHTtHcopvf5-306" vertex="1">
          <mxGeometry width="30" height="30" as="geometry">
            <mxRectangle width="30" height="30" as="alternateBounds" />
          </mxGeometry>
        </mxCell>
        <mxCell id="PsknmnWmkfHTtHcopvf5-308" value="street" style="shape=partialRectangle;connectable=0;fillColor=none;top=0;left=0;bottom=0;right=0;align=left;spacingLeft=6;overflow=hidden;whiteSpace=wrap;html=1;" parent="PsknmnWmkfHTtHcopvf5-306" vertex="1">
          <mxGeometry x="30" width="150" height="30" as="geometry">
            <mxRectangle width="150" height="30" as="alternateBounds" />
          </mxGeometry>
        </mxCell>
        <mxCell id="PsknmnWmkfHTtHcopvf5-309" style="shape=tableRow;horizontal=0;startSize=0;swimlaneHead=0;swimlaneBody=0;fillColor=none;collapsible=0;dropTarget=0;points=[[0,0.5],[1,0.5]];portConstraint=eastwest;top=0;left=0;right=0;bottom=0;" parent="PsknmnWmkfHTtHcopvf5-287" vertex="1">
          <mxGeometry y="210" width="180" height="30" as="geometry" />
        </mxCell>
        <mxCell id="PsknmnWmkfHTtHcopvf5-310" style="shape=partialRectangle;connectable=0;fillColor=none;top=0;left=0;bottom=0;right=0;editable=1;overflow=hidden;whiteSpace=wrap;html=1;" parent="PsknmnWmkfHTtHcopvf5-309" vertex="1">
          <mxGeometry width="30" height="30" as="geometry">
            <mxRectangle width="30" height="30" as="alternateBounds" />
          </mxGeometry>
        </mxCell>
        <mxCell id="PsknmnWmkfHTtHcopvf5-311" value="number" style="shape=partialRectangle;connectable=0;fillColor=none;top=0;left=0;bottom=0;right=0;align=left;spacingLeft=6;overflow=hidden;whiteSpace=wrap;html=1;" parent="PsknmnWmkfHTtHcopvf5-309" vertex="1">
          <mxGeometry x="30" width="150" height="30" as="geometry">
            <mxRectangle width="150" height="30" as="alternateBounds" />
          </mxGeometry>
        </mxCell>
        <mxCell id="PsknmnWmkfHTtHcopvf5-312" style="shape=tableRow;horizontal=0;startSize=0;swimlaneHead=0;swimlaneBody=0;fillColor=none;collapsible=0;dropTarget=0;points=[[0,0.5],[1,0.5]];portConstraint=eastwest;top=0;left=0;right=0;bottom=0;" parent="PsknmnWmkfHTtHcopvf5-287" vertex="1">
          <mxGeometry y="240" width="180" height="30" as="geometry" />
        </mxCell>
        <mxCell id="PsknmnWmkfHTtHcopvf5-313" value="N" style="shape=partialRectangle;connectable=0;fillColor=none;top=0;left=0;bottom=0;right=0;editable=1;overflow=hidden;whiteSpace=wrap;html=1;" parent="PsknmnWmkfHTtHcopvf5-312" vertex="1">
          <mxGeometry width="30" height="30" as="geometry">
            <mxRectangle width="30" height="30" as="alternateBounds" />
          </mxGeometry>
        </mxCell>
        <mxCell id="PsknmnWmkfHTtHcopvf5-314" value="unit" style="shape=partialRectangle;connectable=0;fillColor=none;top=0;left=0;bottom=0;right=0;align=left;spacingLeft=6;overflow=hidden;whiteSpace=wrap;html=1;" parent="PsknmnWmkfHTtHcopvf5-312" vertex="1">
          <mxGeometry x="30" width="150" height="30" as="geometry">
            <mxRectangle width="150" height="30" as="alternateBounds" />
          </mxGeometry>
        </mxCell>
        <mxCell id="PsknmnWmkfHTtHcopvf5-315" style="shape=tableRow;horizontal=0;startSize=0;swimlaneHead=0;swimlaneBody=0;fillColor=none;collapsible=0;dropTarget=0;points=[[0,0.5],[1,0.5]];portConstraint=eastwest;top=0;left=0;right=0;bottom=0;" parent="PsknmnWmkfHTtHcopvf5-287" vertex="1">
          <mxGeometry y="270" width="180" height="30" as="geometry" />
        </mxCell>
        <mxCell id="PsknmnWmkfHTtHcopvf5-316" style="shape=partialRectangle;connectable=0;fillColor=none;top=0;left=0;bottom=0;right=0;editable=1;overflow=hidden;whiteSpace=wrap;html=1;" parent="PsknmnWmkfHTtHcopvf5-315" vertex="1">
          <mxGeometry width="30" height="30" as="geometry">
            <mxRectangle width="30" height="30" as="alternateBounds" />
          </mxGeometry>
        </mxCell>
        <mxCell id="PsknmnWmkfHTtHcopvf5-317" value="postal_code" style="shape=partialRectangle;connectable=0;fillColor=none;top=0;left=0;bottom=0;right=0;align=left;spacingLeft=6;overflow=hidden;whiteSpace=wrap;html=1;" parent="PsknmnWmkfHTtHcopvf5-315" vertex="1">
          <mxGeometry x="30" width="150" height="30" as="geometry">
            <mxRectangle width="150" height="30" as="alternateBounds" />
          </mxGeometry>
        </mxCell>
        <mxCell id="PsknmnWmkfHTtHcopvf5-318" value="" style="edgeStyle=entityRelationEdgeStyle;fontSize=12;html=1;endArrow=ERzeroToMany;startArrow=ERmandOne;rounded=0;entryX=1;entryY=0.5;entryDx=0;entryDy=0;exitX=0;exitY=0.5;exitDx=0;exitDy=0;" parent="1" source="PsknmnWmkfHTtHcopvf5-288" target="PsknmnWmkfHTtHcopvf5-274" edge="1">
          <mxGeometry width="100" height="100" relative="1" as="geometry">
            <mxPoint x="680" y="1777" as="sourcePoint" />
            <mxPoint x="780" y="1677" as="targetPoint" />
          </mxGeometry>
        </mxCell>
        <mxCell id="PsknmnWmkfHTtHcopvf5-319" value="&lt;div&gt;Update: CASCADE&lt;/div&gt;&lt;div&gt;Delete: RESTRICT&lt;br&gt;&lt;/div&gt;" style="text;html=1;align=center;verticalAlign=middle;resizable=0;points=[];autosize=1;strokeColor=none;fillColor=none;" parent="1" vertex="1">
          <mxGeometry x="550" y="1567" width="130" height="40" as="geometry" />
        </mxCell>
        <mxCell id="PsknmnWmkfHTtHcopvf5-320" value="&lt;div&gt;Update: CASCADE&lt;/div&gt;&lt;div&gt;Delete: RESTRICT&lt;br&gt;&lt;/div&gt;" style="text;html=1;align=center;verticalAlign=middle;resizable=0;points=[];autosize=1;strokeColor=none;fillColor=none;" parent="1" vertex="1">
          <mxGeometry x="140" y="1527" width="130" height="40" as="geometry" />
        </mxCell>
        <mxCell id="PsknmnWmkfHTtHcopvf5-321" value="&lt;div&gt;Update: CASCADE&lt;/div&gt;&lt;div&gt;Delete: RESTRICT&lt;br&gt;&lt;/div&gt;" style="text;html=1;align=center;verticalAlign=middle;resizable=0;points=[];autosize=1;strokeColor=none;fillColor=none;" parent="1" vertex="1">
          <mxGeometry x="335" y="1407" width="130" height="40" as="geometry" />
        </mxCell>
        <mxCell id="PsknmnWmkfHTtHcopvf5-322" value="" style="fontSize=12;html=1;endArrow=ERzeroToMany;startArrow=ERmandOne;rounded=0;entryX=0.25;entryY=0;entryDx=0;entryDy=0;exitX=0;exitY=0.5;exitDx=0;exitDy=0;" parent="1" source="PsknmnWmkfHTtHcopvf5-153" target="PsknmnWmkfHTtHcopvf5-267" edge="1">
          <mxGeometry width="100" height="100" relative="1" as="geometry">
            <mxPoint x="670" y="1457" as="sourcePoint" />
            <mxPoint x="490" y="1517" as="targetPoint" />
            <Array as="points">
              <mxPoint x="410" y="1352" />
              <mxPoint x="335" y="1352" />
            </Array>
          </mxGeometry>
        </mxCell>
        <mxCell id="PsknmnWmkfHTtHcopvf5-323" value="" style="fontSize=12;html=1;endArrow=ERzeroToMany;startArrow=ERmandOne;rounded=0;entryX=0.5;entryY=0;entryDx=0;entryDy=0;exitX=1.001;exitY=0.77;exitDx=0;exitDy=0;exitPerimeter=0;" parent="1" source="PsknmnWmkfHTtHcopvf5-153" target="PsknmnWmkfHTtHcopvf5-287" edge="1">
          <mxGeometry width="100" height="100" relative="1" as="geometry">
            <mxPoint x="955" y="1387" as="sourcePoint" />
            <mxPoint x="800" y="1562" as="targetPoint" />
            <Array as="points">
              <mxPoint x="780" y="1360" />
            </Array>
          </mxGeometry>
        </mxCell>
        <mxCell id="PsknmnWmkfHTtHcopvf5-324" value="&lt;div&gt;Update: CASCADE&lt;/div&gt;&lt;div&gt;Delete: RESTRICT&lt;br&gt;&lt;/div&gt;" style="text;html=1;align=center;verticalAlign=middle;resizable=0;points=[];autosize=1;strokeColor=none;fillColor=none;" parent="1" vertex="1">
          <mxGeometry x="780" y="1437" width="130" height="40" as="geometry" />
        </mxCell>
        <mxCell id="PsknmnWmkfHTtHcopvf5-325" value="&lt;div&gt;Update: CASCADE&lt;/div&gt;&lt;div&gt;Delete: CASCADE&lt;br&gt;&lt;/div&gt;" style="text;html=1;align=center;verticalAlign=middle;resizable=0;points=[];autosize=1;strokeColor=none;fillColor=none;" parent="1" vertex="1">
          <mxGeometry x="205" y="1157" width="130" height="40" as="geometry" />
        </mxCell>
        <mxCell id="PsknmnWmkfHTtHcopvf5-327" value="&lt;div&gt;Update: CASCADE&lt;/div&gt;&lt;div&gt;Delete: CASCADE&lt;br&gt;&lt;/div&gt;" style="text;html=1;align=center;verticalAlign=middle;resizable=0;points=[];autosize=1;strokeColor=none;fillColor=none;" parent="1" vertex="1">
          <mxGeometry x="205" y="1007" width="130" height="40" as="geometry" />
        </mxCell>
        <mxCell id="PsknmnWmkfHTtHcopvf5-329" value="" style="fontSize=12;html=1;endArrow=ERzeroToMany;startArrow=ERzeroToOne;rounded=0;exitX=0;exitY=0.5;exitDx=0;exitDy=0;entryX=0;entryY=0.5;entryDx=0;entryDy=0;" parent="1" source="PsknmnWmkfHTtHcopvf5-209" target="PsknmnWmkfHTtHcopvf5-255" edge="1">
          <mxGeometry width="100" height="100" relative="1" as="geometry">
            <mxPoint x="-100" y="1247" as="sourcePoint" />
            <mxPoint y="1147" as="targetPoint" />
            <Array as="points">
              <mxPoint x="-160" y="1050" />
              <mxPoint x="-160" y="1672" />
            </Array>
          </mxGeometry>
        </mxCell>
        <mxCell id="PsknmnWmkfHTtHcopvf5-330" value="" style="fontSize=12;html=1;endArrow=ERzeroToMany;startArrow=ERzeroToOne;rounded=0;exitX=0;exitY=0.5;exitDx=0;exitDy=0;entryX=0;entryY=0.5;entryDx=0;entryDy=0;" parent="1" source="PsknmnWmkfHTtHcopvf5-223" target="PsknmnWmkfHTtHcopvf5-242" edge="1">
          <mxGeometry width="100" height="100" relative="1" as="geometry">
            <mxPoint x="30" y="1060" as="sourcePoint" />
            <mxPoint x="-30" y="1682" as="targetPoint" />
            <Array as="points">
              <mxPoint x="-90" y="1222" />
              <mxPoint x="-90" y="1642" />
            </Array>
          </mxGeometry>
        </mxCell>
        <mxCell id="PsknmnWmkfHTtHcopvf5-331" value="" style="fontSize=12;html=1;endArrow=ERzeroToMany;startArrow=ERmandOne;rounded=0;entryX=0.798;entryY=0.007;entryDx=0;entryDy=0;exitX=0;exitY=0.5;exitDx=0;exitDy=0;entryPerimeter=0;" parent="1" source="PsknmnWmkfHTtHcopvf5-201" target="PsknmnWmkfHTtHcopvf5-242" edge="1">
          <mxGeometry width="100" height="100" relative="1" as="geometry">
            <mxPoint x="265" y="1327" as="sourcePoint" />
            <mxPoint x="110" y="1502" as="targetPoint" />
            <Array as="points">
              <mxPoint x="300" y="1242" />
              <mxPoint x="185" y="1327" />
              <mxPoint x="104" y="1327" />
            </Array>
          </mxGeometry>
        </mxCell>
        <mxCell id="PsknmnWmkfHTtHcopvf5-332" value="&lt;div&gt;Update: CASCADE&lt;/div&gt;&lt;div&gt;Delete: RESTRICT&lt;br&gt;&lt;/div&gt;" style="text;html=1;align=center;verticalAlign=middle;resizable=0;points=[];autosize=1;strokeColor=none;fillColor=none;" parent="1" vertex="1">
          <mxGeometry x="140" y="1337" width="130" height="40" as="geometry" />
        </mxCell>
        <mxCell id="PsknmnWmkfHTtHcopvf5-333" value="&lt;div&gt;Update: CASCADE&lt;/div&gt;&lt;div&gt;Delete: RESTRICT&lt;br&gt;&lt;/div&gt;" style="text;html=1;align=center;verticalAlign=middle;resizable=0;points=[];autosize=1;strokeColor=none;fillColor=none;" parent="1" vertex="1">
          <mxGeometry x="730" y="1247" width="130" height="40" as="geometry" />
        </mxCell>
        <mxCell id="PsknmnWmkfHTtHcopvf5-334" value="&lt;div&gt;Update: CASCADE&lt;/div&gt;&lt;div&gt;Delete: RESTRICT&lt;br&gt;&lt;/div&gt;" style="text;html=1;align=center;verticalAlign=middle;resizable=0;points=[];autosize=1;strokeColor=none;fillColor=none;" parent="1" vertex="1">
          <mxGeometry x="620" y="1067" width="130" height="40" as="geometry" />
        </mxCell>
      </root>
    </mxGraphModel>
  </diagram>
</mxfile>
